<svg width="24" height="24" viewBox="0 0 24 24" fill="none" xmlns="http://www.w3.org/2000/svg">
<path d="M13 4V14.54C13.7626 14.9803 14.3586 15.6599 14.6955 16.4734C15.0325 17.2869 15.0916 18.1888 14.8637 19.0394C14.6358 19.8899 14.1336 20.6415 13.435 21.1775C12.7365 21.7136 11.8805 22.0041 11 22.0041C10.1195 22.0041 9.26353 21.7136 8.56496 21.1775C7.86638 20.6415 7.3642 19.8899 7.1363 19.0394C6.9084 18.1888 6.96752 17.2869 7.30448 16.4734C7.64145 15.6599 8.23743 14.9803 9 14.54V4C9 3.46957 9.21072 2.96086 9.58579 2.58579C9.96086 2.21071 10.4696 2 11 2C11.5304 2 12.0391 2.21071 12.4142 2.58579C12.7893 2.96086 13 3.46957 13 4Z" stroke="#001E44" stroke-linecap="round" stroke-linejoin="round"/>
<path d="M1.18649 5.41524C0.964937 5.2283 0.936766 4.8972 1.1236 4.67559L3.2236 2.18663C3.32335 2.0684 3.47018 2.00001 3.62487 2.00001C3.77956 2.00001 3.92639 2.0684 4.02614 2.18663L6.12614 4.67559C6.31297 4.8972 6.2848 5.2283 6.06325 5.41524C5.84164 5.60208 5.51054 5.57391 5.3236 5.35235L4.14987 3.96124L4.14987 12.575C4.14987 12.865 3.91482 13.1 3.62487 13.1C3.33492 13.1 3.09987 12.865 3.09987 12.575L3.09987 3.96124L1.92614 5.35235C1.7392 5.57391 1.4081 5.60208 1.18649 5.41524Z" fill="#65A7EE"/>
<circle cx="18" cy="18" r="6" fill="#65A7EE"/>
<path d="M19.12 15.61H20.28L18.03 18.2L20.47 21H19.25L16.89 18.27V21H15.83V15.61H16.89V18.23L19.12 15.61Z" fill="white"/>
</svg>
