<svg width="24" height="24" viewBox="0 0 24 24" fill="none" xmlns="http://www.w3.org/2000/svg">
<path d="M14 4V14.54C14.7626 14.9803 15.3586 15.6599 15.6955 16.4734C16.0325 17.2869 16.0916 18.1888 15.8637 19.0394C15.6358 19.8899 15.1336 20.6415 14.435 21.1775C13.7365 21.7136 12.8805 22.0041 12 22.0041C11.1195 22.0041 10.2635 21.7136 9.56496 21.1775C8.86638 20.6415 8.3642 19.8899 8.1363 19.0394C7.9084 18.1888 7.96752 17.2869 8.30448 16.4734C8.64145 15.6599 9.23743 14.9803 10 14.54V4C10 3.46957 10.2107 2.96086 10.5858 2.58579C10.9609 2.21071 11.4696 2 12 2C12.5304 2 13.0391 2.21071 13.4142 2.58579C13.7893 2.96086 14 3.46957 14 4Z" stroke="#001E44" stroke-linecap="round" stroke-linejoin="round"/>
<circle cx="18" cy="18" r="6" fill="#65A7EE"/>
<path d="M16.5031 19.7744C16.1814 19.7751 15.868 19.6762 15.6092 19.4924C15.3503 19.3085 15.1598 19.0494 15.0656 18.7533C14.9715 18.4572 14.9788 18.1398 15.0864 17.8479C15.194 17.5561 15.3962 17.3053 15.6632 17.1326C15.4986 16.9346 15.3997 16.6935 15.3794 16.4407C15.3591 16.1878 15.4183 15.935 15.5494 15.715C15.6805 15.495 15.8773 15.3181 16.1142 15.2072C16.3512 15.0964 16.6173 15.0568 16.878 15.0935V15.0827C16.878 14.7956 16.9965 14.5202 17.2074 14.3171C17.4184 14.1141 17.7045 14 18.0028 14C18.3011 14 18.5872 14.1141 18.7981 14.3171C19.0091 14.5202 19.1276 14.7956 19.1276 15.0827V15.0971C19.3882 15.0604 19.6544 15.1 19.8913 15.2108C20.1283 15.3217 20.3251 15.4986 20.4561 15.7186C20.5872 15.9386 20.6464 16.1914 20.6261 16.4443C20.6058 16.6971 20.5069 16.9382 20.3423 17.1362C20.6077 17.3095 20.8083 17.5601 20.9148 17.8512C21.0213 18.1424 21.0281 18.4587 20.9342 18.7538C20.8402 19.0489 20.6505 19.3072 20.3928 19.4909C20.1352 19.6746 19.8231 19.774 19.5025 19.7744H16.5031Z" fill="#65A7EE"/>
<path d="M18.0028 19.7744L18.0028 22L18.0028 19.7744Z" fill="#65A7EE"/>
<path d="M18.0028 19.7744L18.0028 22M16.5031 19.7744C16.1814 19.7751 15.868 19.6762 15.6092 19.4924C15.3503 19.3085 15.1598 19.0494 15.0656 18.7533C14.9715 18.4572 14.9788 18.1398 15.0864 17.8479C15.194 17.5561 15.3962 17.3053 15.6632 17.1326C15.4986 16.9346 15.3997 16.6935 15.3794 16.4407C15.3591 16.1878 15.4183 15.935 15.5494 15.715C15.6805 15.495 15.8773 15.3181 16.1142 15.2072C16.3512 15.0964 16.6173 15.0568 16.878 15.0935V15.0827C16.878 14.7956 16.9965 14.5202 17.2074 14.3171C17.4184 14.1141 17.7045 14 18.0028 14C18.3011 14 18.5872 14.1141 18.7981 14.3171C19.0091 14.5202 19.1276 14.7956 19.1276 15.0827V15.0971C19.3882 15.0604 19.6544 15.1 19.8913 15.2108C20.1283 15.3217 20.3251 15.4986 20.4561 15.7186C20.5872 15.9386 20.6464 16.1914 20.6261 16.4443C20.6058 16.6971 20.5069 16.9382 20.3423 17.1362C20.6077 17.3095 20.8083 17.5601 20.9148 17.8512C21.0213 18.1424 21.0281 18.4587 20.9342 18.7538C20.8402 19.0489 20.6505 19.3072 20.3928 19.4909C20.1352 19.6746 19.8231 19.774 19.5025 19.7744H16.5031Z" stroke="white" stroke-width="1.2" stroke-linecap="round" stroke-linejoin="round"/>
</svg>
