<!-- Generated by IcoMoon.io -->
<svg version="1.1" xmlns="http://www.w3.org/2000/svg" width="1024" height="1024" viewBox="0 0 1024 1024">
<g id="icomoon-ignore">
</g>
<path fill="#000" d="M881.071 542.525l-155.481 106.939c-7.542 5.237-15.022 10.431-22.616 15.522l-156.598 107.425c-7.151 5.056-15.903 10.204-22.468 15.622l15.124 21.642c4.677-1.56 163.628-112.066 178.505-122.139l111.411-76.35c7.582-5.344 14.679-9.902 22.164-15.234l45.277-30.72c-1.841 14.981-8.911 48.166-11.945 65.374-1.684 9.547-6.885 25.412-0.881 32.251 7.339 8.366 20.997 4.482 23.566-6.77 6.385-27.948 12.336-67.17 18.080-97.618 6.918-36.652 6.623-33.749-28.393-40.388l-99.102-17.956c-11.933-0.757-19.056 12.278-12.121 21.111 5.127 6.537 18.315 7.106 29.658 9.178 21.411 3.915 44.687 7.299 65.822 12.112z"></path>
<path fill="#000" d="M236.863 316.321l-107.756 50.086-20.075-43.189 690.605-320.999 20.075 43.19-534.978 248.663-1.071 99.033 35.954-1.053 240.378 228.254-32.794 34.537-226.005-214.604-65.693 1.922 1.361-125.84zM240.254 740.392l47.625-0.55 2.718 235.11 499.712 1.419-0.136 47.628-546.658-1.553-3.261-282.055z"></path>
</svg>
