<!-- Generated by IcoMoon.io -->
<svg version="1.1" xmlns="http://www.w3.org/2000/svg" width="1024" height="1024" viewBox="0 0 1024 1024">
<g id="icomoon-ignore">
</g>
<path fill="#000" d="M509.221 106.277c-26.258 0-47.739 21.057-47.739 46.793s21.481 46.793 47.739 46.793c26.255 0 47.739-21.057 47.739-46.793s-21.484-46.793-47.739-46.793zM509.221 168.668c-8.754 0-15.913-7.019-15.913-15.598s7.159-15.598 15.913-15.598c8.751 0 15.913 7.019 15.913 15.598s-7.162 15.598-15.913 15.598z"></path>
<path fill="#000" d="M145.605 626.852c-12.134-37.045-18.3-75.846-18.3-115.033 0-39.19 6.166-77.795 18.3-115.033 2.785-8.189-1.989-16.963-10.344-19.693s-17.306 1.949-20.090 10.138c-13.128 40.164-19.891 82.084-19.891 124.589 0 42.502 6.763 84.421 19.891 124.586 2.188 6.63 8.354 10.723 15.117 10.723 1.591 0 3.183-0.193 4.973-0.778 8.553-2.537 13.128-11.308 10.344-19.497z"></path>
<path fill="#000" d="M42.966 357.985c-8.354-2.73-17.306 1.951-20.090 10.141-15.117 46.402-22.875 94.755-22.875 143.694s7.758 97.289 23.074 143.694c2.188 6.63 8.354 10.723 15.117 10.723 1.591 0 3.183-0.193 4.973-0.778 8.355-2.73 12.93-11.504 10.344-19.693-14.521-43.090-21.682-88.128-21.682-133.945 0-45.82 7.161-90.858 21.483-134.141 2.586-8.189-1.989-16.963-10.343-19.693z"></path>
<path fill="#000" d="M995.565 368.125c-2.785-8.189-11.735-12.674-20.091-10.141-8.353 2.73-12.929 11.504-10.342 19.693 14.122 43.283 21.484 88.321 21.484 134.141 0 45.817-7.162 90.855-21.484 134.141-2.785 8.186 1.989 16.96 10.342 19.69 1.592 0.585 3.183 0.781 4.974 0.781 6.764 0 12.929-4.289 15.117-10.723 15.316-46.405 22.876-94.758 22.876-143.696 0-48.935-7.759-97.485-22.876-143.887z"></path>
<path fill="#000" d="M882.981 377.288c-8.356 2.73-12.929 11.501-10.345 19.69 12.136 37.045 18.3 75.846 18.3 115.033 0 39.19-6.164 77.991-18.3 115.033-2.782 8.189 1.989 16.963 10.345 19.693 1.592 0.585 3.183 0.781 4.971 0.781 6.764 0 12.932-4.289 15.12-10.726 13.128-40.164 19.889-82.081 19.889-124.586s-6.761-84.421-19.889-124.586c-2.785-8.581-11.738-13.063-20.091-10.334z"></path>
<path fill="#000" d="M827.483 745.785h-15.913v-280.76c0-64.535-20.887-125.952-60.27-177.619-34.611-45.234-82.552-80.328-136.256-100.021 3.578-11.114 5.568-22.617 5.568-34.315 0-60.246-49.927-109.184-111.391-109.184-61.466 0-111.394 48.938-111.394 109.184 0 11.698 1.989 23.201 5.571 34.315-53.707 19.692-101.645 54.787-136.256 100.021-39.385 51.667-60.271 113.084-60.271 177.619v280.76h-15.913c-26.257 0-47.739 21.056-47.739 46.791v46.794c0 25.738 21.483 46.794 47.739 46.794h222.785c0 51.668 42.765 93.585 95.478 93.585s95.478-41.917 95.478-93.585h222.784c26.255 0 47.739-21.056 47.739-46.794v-46.794c0-25.735-21.484-46.791-47.739-46.791zM238.697 465.025c0-117.178 76.581-218.953 190.76-253.463 4.573-1.365 8.154-4.679 9.945-8.969s1.592-9.164-0.597-13.258c-6.167-11.308-9.149-23.592-9.149-36.265 0-43.089 35.603-77.989 79.565-77.989 43.959 0 79.565 34.9 79.565 77.989 0 12.868-2.984 24.956-9.149 36.265-2.188 4.094-2.387 8.968-0.597 13.258s5.568 7.604 9.945 8.969c114.176 34.51 190.759 136.286 190.759 253.463v280.76h-541.047v-280.76zM509.221 948.555c-35.009 0-63.652-28.075-63.652-62.391h127.304c0 34.316-28.643 62.391-63.652 62.391zM843.396 839.37c0 8.578-7.162 15.597-15.913 15.597h-636.525c-8.752 0-15.913-7.019-15.913-15.597v-46.794c0-8.578 7.161-15.597 15.913-15.597h636.525c8.751 0 15.913 7.019 15.913 15.597v46.794z"></path>
</svg>
