<!-- Generated by IcoMoon.io -->
<svg version="1.1" xmlns="http://www.w3.org/2000/svg" width="1024" height="1024" viewBox="0 0 1024 1024">
<g id="icomoon-ignore">
</g>
<path fill="#000" d="M779.377 817.136c0-28.051 30.066-21.287 30.066-4.627 0 21.625-30.066 18.225-30.066 4.627zM779.377 754.693c0-25.353-6.246-83.258 11.564-83.258 5.932 0 16.189-1.237 16.189 9.251v85.569c0 12.061-27.753 20.483-27.753-11.562zM659.117 831.012c0 23.042 31.637 16.188 55.505 16.188h143.387c20.091 0 57.817-6.589 57.817 13.877 0 11.031-9.626 13.874-20.814 13.874h-210.455c-30.454 0-53.192-13.796-53.192-43.94 0-16.724 24.145-50.712 33.38-66.067 23.702-39.411 70.433-121.058 92.792-154.665 7.201-10.823 16.389-16.5 32.342-18.593 34.571-4.536 52.587 37.040 73.486 72.080 6.829 11.45 12.164 20.291 19.082 31.796l55.553 92.474c11.181 18.414 5.976 29.099-5.985 29.099-13.318 0-27.475-30.676-36.874-46.382-10.58-17.68-20.239-33.846-31.195-52.062l-46.834-78.051c-16.264-27.32-26.131-33.836-45.987-0.584-18.267 30.596-112.008 183.606-112.008 190.956zM43.941 484.106c0-96.308 20.057-159.163 68.45-232.2 47.46-71.632 132.78-133.466 215.514-154.517 93.243-23.724 189.548-18.367 274.938 24.397 50.488 25.286 70.333 39.883 107.732 77.281 36.774 36.774 52.297 60.429 76.528 108.487 33.358 66.158 36.215 121.144 36.215 195.053 0 6.247-1.104 6.377-2.312 11.564l-34.691-2.313c-48.082 0-82.727 13.676-114.883 30.817-27.711 14.772-59.637 43.893-76.652 69.049-40.548 59.948-54.446 127.912-34.652 200.328 2.47 9.038 6.509 18.401 8.794 28.209-9.988 0.831-21.679 6.38-30.522 8.793-11.082 3.023-21.151 5.014-32.088 7.227-161.717 32.728-324.931-45.177-408.239-183.476l-31.008-66.125c-13.342-33.555-23.123-84.077-23.123-122.577zM0 472.544c0 70.725 20.821 153.625 54.167 209.479 69.495 116.409 165.098 194.093 308.898 218.396 35.212 5.951 85.116 8.445 121.012 3.010 31.478-4.766 78.298-13.036 105.659-26.164 59.235 88.461 163.462 128.938 268.285 97.147 184.524-55.962 239.686-319.41 41.525-434.711-5.96-3.47-26.914-13.326-34.601-13.966 0-69.265 8.504-62.886-8.633-148.63-5.803-29.034-16.198-55.121-26.697-79.687-63.467-148.483-221.139-257.349-383.267-257.349-77.942 0-135.313 11.028-197.38 40.828-46.396 22.276-88.874 52.37-124.696 88.070-31.1 30.995-68.931 85.945-85.951 126.818-23.365 56.108-38.323 111.677-38.323 176.758z"></path>
<path fill="#000" d="M434.786 553.489c-8.723 0-14.368-2.209-19.311-8.442-7.221-9.107-12.26-106.003-13.087-123.361l-12.524-151.68c-10.708-71.577 60.016-76.239 79.625-44.931 11.406 18.209 8.087 21.88 6.951 43.967-1.806 35.089-5.313 66.659-6.983 101.726l-7.896 100.801c-5.896 39.362 3.77 81.92-26.776 81.92zM434.786 597.431c48.453 0 65.683-41.192 67.064-85.574l11.547-141.090c1.664-34.93 11.886-117.741 6.452-140.548-6.667-27.981-28.343-51.363-54.645-60.991-54.236-19.852-106.921 14.754-116.957 61.827-6.441 30.211 8.014 170.59 12.189 209.455 4.906 45.696-0.075 103.689 21.388 131.25 10.57 13.574 29.153 25.669 52.963 25.669z"></path>
<path fill="#000" d="M397.783 701.501c0-14.408 14.666-32.378 30.065-32.378 21.42 0 41.629 4.871 41.629 37.005 0 14.408-14.666 32.376-30.065 32.376-23.914 0-41.629-9.127-41.629-37.003zM427.848 782.446c25.1 0 48.491-3.811 65.829-26.678 48.171-63.533-4.356-131.75-61.004-130.173-41.769 1.163-75.643 33.042-77.222 76.856-0.802 22.294 7.399 41.049 19.165 54.596 10.151 11.689 31.285 25.4 53.231 25.4z"></path>
</svg>
