<!-- Generated by IcoMoon.io -->
<svg version="1.1" xmlns="http://www.w3.org/2000/svg" width="1024" height="1024" viewBox="0 0 1024 1024">
<g id="icomoon-ignore">
</g>
<path fill="#000" d="M473.6 645.73c1.163 27.238 16.291 43.333 38.402 43.333 22.109 0 37.237-16.095 38.4-43.333 2.328-39.617 4.656-80.473 5.819-120.092 2.328-39.617 4.656-77.997 5.819-117.614 1.165-33.428-22.109-60.666-51.202-59.428-30.256 1.238-52.365 27.238-50.037 61.904 4.654 77.997 9.309 157.234 12.8 235.231z"></path>
<path fill="#000" d="M513.158 716.27c-36.072 0-64.002 28.474-64.002 65.618 0 39.617 27.93 70.57 64.002 70.57 34.912 0 64.005-30.952 64.005-66.856-1.165-38.38-29.093-69.332-64.005-69.332z"></path>
<path fill="#000" d="M1007.693 836.355c-112.87-205.508-262.977-476.629-411.921-746.512-19.781-35.902-50.035-55.71-83.779-55.71-33.746 0-64 19.808-82.619 54.472-68.654 123.8-137.307 248.837-205.96 372.636-50.036 90.374-100.071 181.985-151.27 272.359-6.982 11.143-12.8 23.522-19.782 34.666-12.8 23.52-25.6 47.043-38.399 70.565-6.982 12.379-10.473 24.76-12.8 35.901-2.327 16.095-1.164 33.426 3.491 49.521 5.818 14.855 15.127 28.474 26.763 39.615 9.309 7.427 19.782 13.619 32.581 18.571 16.291 6.19 32.581 7.427 43.054 7.427 89.599 0 178.033 0 260.65 0h260.651c95.416 0 190.835 0 286.251 0 1.163 0 2.326 0 2.326 0 1.165 0 3.493 0 4.656 0 3.491 0 9.309 0 16.291-1.238 48.872-6.19 69.816-37.139 77.963-54.472 6.981-17.331 17.454-53.234-8.146-97.801zM928.568 920.54c-2.328 0-4.654 0-8.144 0-2.328 0-4.656 0-6.984 0-95.416 0-190.833 0-286.249 0h-116.363c-47.707 0-95.416 0-143.126 0-87.27 0-173.378 0-259.486 0-6.982 0-15.127-1.238-22.109-3.714-20.945-7.43-25.6-22.285-15.127-43.331 18.618-34.664 38.4-70.565 58.181-105.229 118.69-214.175 237.378-429.586 356.066-643.759 8.146-13.618 17.456-21.046 26.765-21.046 9.307 0 19.781 7.428 27.926 21.046 137.307 248.837 274.614 497.675 411.921 746.512 15.128 27.236 5.819 45.807-23.272 49.521z"></path>
</svg>
