<!-- Generated by IcoMoon.io -->
<svg version="1.1" xmlns="http://www.w3.org/2000/svg" width="1024" height="1024" viewBox="0 0 1024 1024">
<g id="icomoon-ignore">
</g>
<path fill="#000" d="M75.547 954.811h872.907c28.351 0 52.224-14.759 65.652-38.378 13.431-23.616 13.431-51.659-1.492-75.278l-432.72-735.065c-13.431-22.14-37.304-36.901-64.163-36.901s-50.732 13.284-64.163 35.425l-440.182 736.541c-14.921 23.618-14.921 51.662-1.492 75.278 13.429 23.618 38.796 38.378 65.654 38.378zM36.751 855.917l438.692-735.067c8.953-13.284 22.381-22.141 38.796-22.141 16.412 0 31.334 8.856 38.796 22.141l434.215 735.067c8.953 14.759 8.953 30.997 0 45.756s-22.384 23.616-40.29 23.616h-871.412c-16.414 0-31.335-8.856-40.288-23.616-7.461-13.284-7.461-30.997 1.492-45.756z"></path>
<path fill="#000" d="M505.286 718.646h29.843c7.461 0 13.428-5.906 14.92-13.284l44.765-339.489c0-4.428-1.492-8.856-2.983-11.809-1.492-2.95-7.461-4.428-11.937-4.428h-119.373c-4.475 0-8.953 1.478-11.937 4.428-2.983 2.953-2.983 7.381-2.983 11.809l44.763 339.489c1.492 7.378 7.461 13.284 14.923 13.284zM563.48 379.157l-40.287 309.968h-2.986l-40.287-309.968h83.561z"></path>
<path fill="#000" d="M520.206 736.358c-32.826 0-58.194 26.569-58.194 57.565s25.368 57.565 58.194 57.565c32.829 0 58.194-26.569 58.194-57.565s-25.365-57.565-58.194-57.565zM520.206 821.968c-16.412 0-28.351-13.284-28.351-28.044 0-14.762 13.431-28.047 28.351-28.047 14.923 0 28.351 13.284 28.351 28.047 0 14.759-11.937 28.044-28.351 28.044z"></path>
</svg>
