<!-- Generated by IcoMoon.io -->
<svg version="1.1" xmlns="http://www.w3.org/2000/svg" width="1024" height="1024" viewBox="0 0 1024 1024">
<g id="icomoon-ignore">
</g>
<path fill="#000" d="M785.504 782.195c0-18.636 31.878-20.529 31.878 0 0 23.953-31.878 18.918-31.878 0zM141.125 870.998v-248.189c6.99 1.629 20.274 10.123 26.886 14.099l107.337 61.158c8.826 5.083 18.301 10.872 27.441 15.82l54.647 31.878c-6.005 8.966-198.691 121.129-216.311 125.234zM787.78 734.38v-81.971c0-22.468 27.323-18.579 27.323-4.554 0 24.476 2.645 74.508-2.277 95.633-7.976 1.857-25.046 5.503-25.046-9.108zM537.315 700.226c0 45.814-0.135 56.122 14.484 99.364 3.062 9.055 6.442 13.401 8.286 21.315l-96.047-54.233c-9.253-5.601-25.884-13.294-31.463-20.908 7.688-5.147 16.914-10.285 25.829-15.156l81.189-46.321c-0.592 7.123-2.278 8.090-2.278 15.939zM919.844 818.627c3.141 4.692 6.831 5.91 6.831 11.386 0 10.629-5.309 15.937-15.939 15.937h-227.695c-28.185 0-47.817-17.161-47.817-45.538 0-14.571 8.758-24.841 14.954-35.14l95.060-157.682c21.043-35.279 23.662-50.813 60.758-50.813 26.536 0 37.772 25.439 48.245 42.834l68.599 113.557c9.837 16.488 33.435 50.201 33.435 62.197 0 5.309-6.076 11.385-11.385 11.385-13.908 0-17.456-11.279-22.877-20.386l-97.673-161.899c-2.402-4.029-5.546-10.355-8.471-14.299-19.668-26.533-37.228 15.613-48.707 34.792-9.878 16.506-19.637 32.784-29.903 49.79-7.010 11.614-72.008 117.178-73.437 124.682-1.684 8.849 3.782 18.246 16.879 19.261 27.711 2.145 202.161-0.065 239.145-0.065zM571.085 347.298c-7.564 4.070-142.753 4.884-158.491 1.738-2.933-10.174-2.32-104.904 1.766-107.975 18.119-2.408 93.272-0.778 120.764-0.695 18.293 0.056 20.922-1.914 31.793-9.193 0-36.739-25.17-25.041-70.586-25.046l-248.25-1.673c-20.171-0.245-24.985 4.913-24.985 26.718 20.252 13.562 38.892 9.107 72.862 9.107 27.323 0 54.646 0 81.971 0l0.233 100.42c-1.392 13.141-10.22 9.038-25.261 8.893-44.708-0.427-89.628-0.019-134.359-0.019v-243.633h352.928l-0.385 241.357zM202.603 388.283h170.771v318.773c-9.148-2.131-53.31-28.532-61.93-33.703l-122.050-71.489c-36.471-21.87-82.349-58.665-89.219-8.621-2.073 15.099-1.255 73.452 0.927 87.805 3.068 20.195-0.961 26.992-0.961 44.223h-79.694c-27.262 0-27.262 43.263 0 43.263h79.694v79.693c0 18.091 2.144 30.643 2.282 45.534 0.48 52.004 33.399 29.633 62.433 12.351 66.792-39.755 145.894-82.767 211.79-122.926 22.082-13.456 13.007-14.705 59.765 13.39l194.17 110.943c13.461 7.732 22.307 15.661 38.030 23.447 51.966 25.731 72.152 26.556 128.278 26.556 48.666 0 91.406-21.948 127.101-45.946 7.302-4.909 9.907-8.286 16.351-13.249 22.505-17.334 49.926-58.458 61.473-84.254 70.371-157.201-50.88-339.266-214.034-339.266-51.653 0-91.878 9.082-131.138 32.803-35.579 21.495-70.97 56.009-89.76 92.396-20.326 39.362-3.322 22.851-55.333 53.961-10.971 6.562-83.958 50.538-94.911 53.090v-318.773h173.048c14.246 0 22.77-12.625 22.77-27.323v-261.85c0-17.471-5.559-31.878-22.77-31.878h-387.081c-34.532 0-25.043 46.074-25.048 63.755l0.493 234.034c2.062 14.961 6.315 23.263 24.554 23.263z"></path>
</svg>
