<!-- Generated by IcoMoon.io -->
<svg version="1.1" xmlns="http://www.w3.org/2000/svg" width="1024" height="1024" viewBox="0 0 1024 1024">
<g id="icomoon-ignore">
</g>
<path fill="#fff" d="M747.52 36.858c5.263-13.125 0-28.876-10.526-34.126s-23.683-2.625-31.578 5.25l-552.616 551.269c-10.526 10.501-10.526 26.251 0 36.752 5.263 5.251 10.526 7.875 15.789 7.875l305.254 23.625-149.996 359.638c-5.263 13.127 0 28.877 13.157 34.126 10.527 5.251 21.053 2.626 28.947-5.249l505.247-525.020c10.526-10.499 10.526-26.251 0-36.75-5.263-5.251-10.526-7.875-15.789-7.875l-302.623-23.627zM426.477 879.514l110.522-265.135c5.263-13.127 0-28.877-13.157-34.126-2.631 0-5.263-2.626-7.894-2.626l-286.834-21 397.356-396.39-136.837 275.635c-5.263 13.125 0 28.877 10.526 34.126 2.631 2.626 5.263 2.626 10.526 2.626l286.834 21-371.042 385.89z"></path>
</svg>
