<!-- Generated by IcoMoon.io -->
<svg version="1.1" xmlns="http://www.w3.org/2000/svg" width="1024" height="1024" viewBox="0 0 1024 1024">
<g id="icomoon-ignore">
</g>
<path fill="#fff" d="M814.329 859.361c3.136 29.006-23.394 23.481-27.517 11.692-6.732-19.252 13.862-23.834 27.517-11.692zM790.3 736.241l20.142-0.865c5.216 14.702 5.319 82.236-0.337 95.235l-19.638 1.472c-5.273-17.508-5.896-79.743-0.166-95.843zM391.361 561.634c32.094 39.553 52.1 60.465 112.901 67.553 3.583 18.19 1.125 217.066 1.125 253.239 0 22.784 12.534 88.455-51.676 70.144-61.679-17.59-112.646-61.648-138.921-118.289-50.892-109.707 5.716-239.186 76.571-272.647zM909.824 899.655c6.549 15.848 3.226 23.379-16.881 23.379h-197.19c-29.042 0-53.188-19.13-45.341-49.297 2.354-9.054 105.106-178.75 113.052-190.995 15.134-23.322 44.962-31.586 67.328-8.488 9.902 10.227 29.934 47.554 38.929 62.459 13.012 21.564 24.841 41.296 38.084 63.319 13.901 23.118 35.549 49.981 29.319 66.801-18.441 7.656-22.56-4.669-30.771-18.586l-63.276-105.709c-55.024-91.48-31.185-86.744-157.238 119.865-6 9.835-18.177 28.524 0.053 34.58 16.048 5.331 189.016-3.792 223.932 2.673zM921.531 639.187c-83.030-62.293-185.36-71.288-271.984-7.922-11.434 8.364-19.338 17.644-29.486 25.466-6.068-3.185-0.145 0.954-6.134-4.682-12.117-11.403-26.247-24.373-33.011-40.067 32.683-15.866 60.194-57.021 65.868-95.113 0.159-1.069 1.286-8.918 1.309-8.993 2.433-7.772-0.718-5.142 5.754-8.457 84.896 0 169.793 0.016 254.69 0 49.569-0.009 78.196 1.439 60.514 58.949-9.076 29.518-30.209 67.334-47.52 80.819zM615.675 508.189c-15.233 99.864-134.378 115.622-185.789 49.778-20.561-26.334-26.752-40.259-20.861-81.554 4.216-29.547 21.133-54.695 37.473-66.422 26.711-19.168 39.72-27.060 82.262-20.898 28.644 4.149 55.052 22.039 66.293 37.491 18.214 25.039 26.638 42.168 20.622 81.606zM375.119 486.749l-280.107 0.054c-31.757 0.093-51.872-12.003-44.164-46.299 38.774-172.519 279.866-234.709 392.734-70.055-12.518 21.079-51.515 16.74-68.464 116.3zM633.056 423.737c-9.536-7.609-25.393-43.064-75.936-60.515-12.83-4.43-27.302-4.705-38.089-8.367-3.376-23.212-0.971-214.111-0.974-254.69-0.002-44.144-2.105-83.996 54.927-67.221 48.016 14.123 87.304 43.086 113.471 78.748 76.993 104.926 48.117 247.271-53.4 312.044zM487.032 378.57c-22.731-29.248-31.14-54.384-71.626-84.112-71.322-52.368-161.814-67.18-245.28-33.406-19.402 7.85-34.508 16.814-50.382 27.461-17.649 11.838-27.38 22.304-43.224 37.344-19.899 18.887-44.833 64.957-54.612 101.302-13.394 49.78 13.016 88.186 57.758 90.374 102.92 5.035 214.891-6.092 317.055 0.563-8.592 10.179-46.928 24.051-83.445 73.122-105.424 141.669-38.017 341.669 136.198 391.505 48.935 13.999 86.638-15.165 88.082-61.207 3.223-102.703-0.009-211.216-0.009-314.572 16.721 17.252 8.939 24.207 61.724 74.242-2.895 9.207-16.638 28.134-24.853 51.601-7.3 20.852-11.846 42.622-12.649 66.453-1.887 56.016 16.677 104.556 47.371 143.469 7.078 8.974 12.369 12.028 19.298 19.692 12.412 13.731 27.802 25.078 44.028 34.001 35.852 19.718 74.745 31.483 123.625 27.954 127.224-9.185 221.372-126.695 198.914-257.036-6.538-37.944-28.646-84.188-50.408-102.551 3.261-11.504 19.179-24.784 31.794-47.197 10.312-18.322 18.112-34.736 24.383-56.183 14.47-49.483-6.422-90.336-53.597-93.94-76.033-5.81-227.098 3.409-319.642-0.517 11.701-13.86 109.592-55.048 130.48-182.019 39.151-237.993-266.293-371.872-270.826-221.249-3.131 103.993 2.059 210.538-0.155 314.906z"></path>
<path fill="#fff" d="M499.203 429.898c81.009-19.065 110.303 105.853 27.732 125.298-81.168 19.114-114.272-104.931-27.732-125.298zM417.674 505.59c5.99 48.119 51.539 88.813 107.771 81.511 47.84-6.213 88.715-50.532 81.531-107.467-15.445-122.407-205.294-102.5-189.303 25.957z"></path>
</svg>
