<!-- Generated by IcoMoon.io -->
<svg version="1.1" xmlns="http://www.w3.org/2000/svg" width="1024" height="1024" viewBox="0 0 1024 1024">
<g id="icomoon-ignore">
</g>
<path fill="#fff" d="M526.577 0.183c-180.862-4.88-360.121 87.838-456.153 257.007-25.609 43.919-43.215 91.092-56.019 138.262-1.601 6.507 3.201 14.64 9.603 14.64 6.402 1.628 14.405-3.254 16.006-9.758 11.204-45.548 27.209-89.466 51.217-131.758 92.832-161.036 262.489-247.247 433.748-243.994 78.425 1.627 156.854 22.773 230.476 65.065 233.68 135.010 312.105 432.681 177.661 665.291-134.445 232.607-432.145 312.31-664.224 177.301-120.041-68.317-200.067-182.183-228.877-309.060-1.601-6.504-9.603-11.386-16.006-9.758-6.402 1.625-11.204 9.758-9.603 16.265 32.011 131.756 115.239 252.129 243.282 325.325 244.882 141.517 556.988 58.56 697.837-187.062 140.846-243.993 57.618-557.932-187.263-699.449-75.228-43.919-160.055-66.692-241.684-68.318zM497.77 213.271c-9.606 1.627-14.405 14.64-6.405 22.773l264.090 263.513h-742.65c-6.402 0-12.804 6.507-12.804 13.015s6.402 13.011 14.405 13.011h741.049l-264.090 263.515c-4.8 4.879-4.8 13.011 0 17.894 4.803 4.879 12.807 4.879 17.606 0l286.499-286.287c4.8-4.879 4.8-13.015 0-17.894l-286.499-286.286c-1.599-1.627-6.402-4.88-9.602-4.88 0 1.627-1.599 1.627-1.599 1.627z"></path>
</svg>
