<!-- Generated by IcoMoon.io -->
<svg version="1.1" xmlns="http://www.w3.org/2000/svg" width="1024" height="1024" viewBox="0 0 1024 1024">
<g id="icomoon-ignore">
</g>
<path fill="#fff" d="M983.117 939.694h-848.322l188.521-188.519 103.683 103.683c7.069 7.069 18.853 7.069 25.918 0l358.181-360.537v37.706c0 9.427 9.422 18.85 18.85 18.85 9.425 0 18.851-9.422 18.851-18.85v-84.834c0-2.356 0-4.714-2.356-7.069-2.356-4.711-4.713-7.069-9.427-9.425-2.356 0-4.711-2.356-7.069-2.356h-84.832c-9.425 0-18.851 9.425-18.851 18.851s9.425 18.853 18.851 18.853h37.706l-344.039 348.75-103.688-103.683c-7.069-7.069-18.851-7.069-25.918 0l-200.297 200.295v-848.321c0-7.069-9.425-16.493-18.852-16.493s-18.852 9.426-18.852 18.852v893.098c0 2.356 0 4.714 2.356 7.069 2.356 4.713 4.713 7.069 9.426 9.427 2.356 0 4.713 2.356 7.069 2.356h893.098c9.427 0 18.853-9.427 18.853-18.853s-9.427-18.851-18.853-18.851h0.003z"></path>
<path fill="#fff" d="M397.323 562.028c0 28.904-40.983 9.128-53.8-0.436-16.163-12.056-27.971-24.431-36.868-47.398-19.921-51.449 11.546-109.985 38.019-118.499 7.288 9.087 12.072 15.168 22.088 21.276 20.388 12.439 28.483 5.342 30.559 12.36v132.698l0.003-0.002zM434.781 417.297c14.712-5.388 29.633-28.42 31.283-51.489 39.99 0 79.979 0.056 119.972 0 22.914-0.029 37.172 0 28.343 27.072-13.703 42.019-55.272 74.263-105.621 69.705-28.791-2.605-65.406-23.298-73.98-45.285l0.003-0.003zM385.492 315.723c11.606-5.666 31.179-1.566 40.964 4.411 3.59 2.194 10.195 8.327 12.993 11.254 14.415 15.079 12.73 38.448 3.399 55.167-29.412 52.671-115.668 9.919-83.347-49.2 6.819-12.474 15.798-16.646 26-21.623zM336.577 358.119c-39.415 0-78.836-0.029-118.252 0-21.206 0.019-39.354 0.33-30.888-26.062 8.872-27.664 29.165-51.486 55.326-62.757 48.849-21.050 105.253-0.769 124.995 35.414-0.262 0.32-0.677 0.694-0.872 0.881l-10.488 9.214c-12.305 11.993-18.181 24.885-19.822 43.313l0.009-0.006-0.003 0.006v-0.002zM404.816 296.828c0-39.986 0.073-79.969-0.003-119.955-0.037-22.185 0.246-37.405 26.94-28.721 44.768 14.554 74.986 57.89 70.424 106.477-3.234 34.563-24.574 61.585-44.121 73.624-15.841-16.834-20.838-27.721-53.257-31.412l0.003 0.003v-0.006l0.003-0.005zM459.386 348.811c3.229-4.123 1.536-2.172 5.522-4.91 95.216-65.371 53.040-192.972-35.351-212.935-23.425-5.288-39.745 8.82-40.876 29.699-2.498 45.761 3.712 99.225-0.46 143.845-8.528-9.719-11.518-21.429-34.335-38.086-13.619-9.947-31.489-17.971-51.783-20.967-111.905-16.519-172.51 125.11-103.268 128.811 46.599 2.491 100.211-3.618 145.849 0.437-3.39 2.916-7.709 4.927-11.457 7.591-44.818 31.687-61.349 88.277-39.916 142.060 13.585 34.085 44.653 58.269 79.305 68.023 22.273 6.265 39.55-7.709 41.309-27.209 2.112-23.421-0.342-112.503 0.314-146.159l8.412 11.755c3.308 4.33 4.989 6.676 8.101 9.714 10.676 10.429 5.591 6.868 18.879 16.748 13.29 9.871 31.577 18.112 52.185 20.919 62.474 8.523 115.519-33.307 129.814-85.841 6.433-23.65-5.299-41.274-26.578-43.139-30.469-2.663-105.653 1.295-145.648-0.365l0.006 0.003h-0.009l-0.005-0.009z"></path>
<path fill="#fff" d="M393.928 334.471c36.811-10.767 51.226 45.233 16.127 55.939-37.253 11.374-55.705-44.367-16.127-55.939zM356.25 370.178c3.938 24.493 27.404 41.639 52.882 37.030 59.15-10.709 43.465-99.106-15.563-89.565-22.665 3.664-41.801 24.736-37.323 52.537h0.003v0.003z"></path>
</svg>
