<!-- Generated by IcoMoon.io -->
<svg version="1.1" xmlns="http://www.w3.org/2000/svg" width="1024" height="1024" viewBox="0 0 1024 1024">
<g id="icomoon-ignore">
</g>
<path fill="#fff" d="M341.909 520.671v-333.912c-6.162-159.968-232.623-159.968-238.785 0v170.84c0 20.188 30.811 20.188 30.811 0v-170.84c0-49.699 40.054-90.079 89.353-90.079 49.297 0 87.81 40.38 87.81 90.079v343.231c0 6.213 3.081 10.872 7.702 13.978 169.461 99.399 100.136 360.317-95.512 361.87-106.299-1.554-192.569-88.527-192.569-195.689 0-68.336 36.973-133.565 97.054-167.733 4.622-3.108 7.703-7.767 7.703-13.978v-90.079c0-20.191-30.811-20.191-30.811 0v82.312c-189.487 121.141-104.757 414.673 118.623 414.673 221.838 0 306.568-293.532 118.621-414.673z"></path>
<path fill="#fff" d="M257.178 481.843c9.245 0 15.407-6.211 15.407-15.529v-276.45c0-9.318-6.162-15.531-15.407-15.531h-69.323c-9.243 0-15.405 6.212-15.405 15.531v374.293c-61.622 21.744-104.757 80.76-104.757 145.991 7.703 206.559 298.865 206.559 308.11 0 0-66.783-41.594-125.801-104.757-145.991v-20.191c0-20.188-30.811-20.188-30.811 0v32.617c0 7.765 4.621 13.978 10.783 15.529 138.65 38.827 112.46 242.283-30.81 243.834-67.784 0-123.244-55.91-123.244-124.247 0-55.91 38.514-105.61 92.432-119.588 6.162-1.552 12.325-7.765 12.325-15.529v-371.188h38.514v260.919c1.54 9.318 9.243 15.529 16.945 15.529z"></path>
<path fill="#fff" d="M898.431 520.671v-333.912c-6.162-159.968-232.624-159.968-238.786 0v170.84c0 20.188 30.811 20.188 30.811 0v-170.84c0-49.699 40.054-90.079 89.353-90.079 49.297 0 87.81 40.38 87.81 90.079v343.231c0 6.213 3.081 10.872 7.702 13.978 169.461 99.399 100.136 360.317-95.512 361.87-106.298-1.554-192.57-88.527-192.57-195.689 0-68.336 36.973-133.565 97.055-167.733 4.621-3.108 7.702-7.767 7.702-13.978v-90.079c0-20.191-30.811-20.191-30.811 0v82.312c-189.487 121.141-104.755 414.673 118.624 414.673 221.838 0 306.568-293.532 118.621-414.673z"></path>
<path fill="#fff" d="M813.699 481.843c9.245 0 15.407-6.211 15.407-15.529v-276.45c0-9.318-6.162-15.531-15.407-15.531h-69.323c-9.245 0-15.407 6.212-15.407 15.531v374.293c-61.62 21.744-104.757 80.76-104.757 145.991 7.704 206.559 298.866 206.559 308.11 0 0-66.783-41.594-125.801-104.757-145.991v-20.191c0-20.188-30.811-20.188-30.811 0v32.617c0 7.765 4.621 13.978 10.783 15.529 138.65 38.827 112.46 242.283-30.811 243.834-67.782 0-123.243-55.91-123.243-124.247 0-55.91 38.514-105.61 92.434-119.588 6.162-1.552 12.324-7.765 12.324-15.529v-371.188h38.514v260.919c1.54 9.318 9.243 15.529 16.945 15.529z"></path>
<path fill="#fff" d="M912.696 712.348c0 73.766-59.799 133.565-133.565 133.565s-133.565-59.799-133.565-133.565c0-73.766 59.799-133.565 133.565-133.565s133.565 59.799 133.565 133.565z"></path>
</svg>
