<!-- Generated by IcoMoon.io -->
<svg version="1.1" xmlns="http://www.w3.org/2000/svg" width="1024" height="1024" viewBox="0 0 1024 1024">
	<g id="icomoon-ignore">
	</g>
	<path fill="#fff" d="M1003.261 982.521h-933.266l207.393-207.392 114.064 114.064c7.778 7.778 20.739 7.778 28.517 0l394.047-396.636v41.479c0 10.37 10.367 20.737 20.737 20.737s20.739-10.367 20.739-20.737v-93.327c0-2.592 0-5.186-2.592-7.778-2.592-5.184-5.184-7.778-10.37-10.37-2.592 0-5.184-2.592-7.778-2.592h-93.325c-10.37 0-20.739 10.37-20.739 20.739s10.37 20.739 20.739 20.739h41.479l-378.491 383.675-114.067-114.064c-7.778-7.778-20.739-7.778-28.517 0l-220.354 220.353v-933.265c0-7.777-10.369-18.147-20.739-18.147s-20.739 10.37-20.739 20.739v982.521c0 2.592 0 5.186 2.592 7.778 2.592 5.184 5.185 7.778 10.37 10.37 2.592 0 5.185 2.592 7.777 2.592h982.521c10.37 0 20.739-10.37 20.739-20.739s-10.37-20.739-20.739-20.739z"></path>
</svg>