<svg width="24" height="24" viewBox="0 0 24 24" fill="none" xmlns="http://www.w3.org/2000/svg">
<path d="M2 12C2 9.34784 3.05357 6.8043 4.92893 4.92893C6.8043 3.05357 9.34784 2 12 2C14.7956 2.01052 17.4789 3.10136 19.4889 5.04444L22 7.55556M22 7.55556V4M22 7.55556H18.4444M22 12C22 14.6522 20.9464 17.1957 19.0711 19.0711C17.1957 20.9464 14.6522 22 12 22C9.20439 21.9895 6.52108 20.8986 4.51111 18.9556L2 16.4444M2 16.4444H5.55556M2 16.4444V20" stroke="#001E44" stroke-width="1.3" stroke-linecap="round" stroke-linejoin="round"/>
<path d="M9 14.5C9.0652 14.7382 9.13926 14.9594 9.24196 15.1876C9.62197 16.0775 10.4945 16.9432 11.6726 17.0607C12.3973 17.1387 13.1421 16.8824 13.7505 16.4553C14.3572 16.0449 14.9986 15.4639 15.2037 14.7208C15.2037 14.7208 15.2037 14.7208 15.2037 14.7208C15.8444 11.9626 14.2186 9.8339 12.5863 8.45231C12.4001 8.29999 12.2047 8.14919 12 8C12.1006 8.23249 12.1937 8.45819 12.2799 8.67706C13.0706 10.6579 13.6893 12.6995 13.2778 14.1814C13.2778 14.1814 13.2778 14.1814 13.2778 14.1814C13.1717 14.5662 13.1783 15.052 12.8722 15.3872C12.5737 15.7115 12.1395 15.8757 11.6858 15.9358C10.9556 16.0471 10.0751 15.7404 9.4378 15.0574C9.27573 14.8861 9.13366 14.7077 9 14.5Z" fill="#65A7EE"/>
<path fill-rule="evenodd" clip-rule="evenodd" d="M11.9995 6C12.2113 6 12.394 6.16801 12.4357 6.40156C12.6723 7.73236 13.3796 9.01179 14.3168 9.87201C15.4094 10.8749 16 12.1089 16 13.4509C15.9996 15.9403 14.206 18 11.9995 18C9.79329 17.9997 8.00044 15.9401 8 13.4509C8 12.1228 8.57881 10.8664 9.68686 9.86908C10.6277 9.02222 11.3271 7.73553 11.5643 6.40156L11.5863 6.31754C11.6519 6.12884 11.8143 6.0002 11.9995 6ZM12.0005 8.08891C11.5957 9.08243 10.9862 9.98098 10.2421 10.6507C9.30586 11.4934 8.88879 12.4789 8.88879 13.4509C8.88922 15.4007 10.2956 17.0002 11.9995 17.0005C13.7036 17.0005 15.1108 15.4009 15.1112 13.4509C15.1112 12.4729 14.6881 11.505 13.7542 10.6478C13.0197 9.97361 12.4074 9.08 12.0005 8.08891Z" fill="#001E44"/>
</svg>
