<!-- Generated by IcoMoon.io -->
<svg version="1.1" xmlns="http://www.w3.org/2000/svg" width="1024" height="1024" viewBox="0 0 1024 1024">
<g id="icomoon-ignore">
</g>
<path fill="#000" d="M423.643 966.563c-45.385 0-75.382-6.31-109.765-39.321-58.054-55.738-49.756-158.476 9.508-201.419 19.216-13.923 11.379-30.298 11.379-77.499v-467.325c0-36.608-3.968-84.704 8.65-108.897 30.116-57.74 115.094-55.057 140.482 5.639 11.059 26.441 5.688 76.136 5.688 111.86 0 53.853-4.128 512.029 1.822 525.709 0.853 1.961 95.438 71.39 48.91 170.102-6.705 14.227-16.594 28.492-27.034 38.907-22.279 22.224-54.221 42.243-89.64 42.243zM243.021 823.211c0 57.908 15.237 91.308 50.845 126.91 63.185 63.175 172.375 64.874 236.587-0.031 40.262-40.697 50.876-70.832 50.876-129.746 0-72.991-55.757-107.504-59.514-121.108l-0.694-555.508c0.002-58.018-3.591-99.122-53.788-129.701-43.133-26.277-106.418-15.069-141.667 28.859-20.334 25.34-22.451 55.96-22.44 100.842l-0.201 553.133c-3.108 17.324-60.006 47.67-60.006 126.349z"></path>
<path fill="#000" d="M412.175 912.089c-5.988 0-24.797-4.566-30.481-6.791-8.086-3.166-17.145-8.954-23.22-14.050-26.223-21.995-26.575-43.142-26.575-70.904 0-48.874 60.208-65.843 60.208-80.277v-97.478h40.138v91.745c0 27.546 62.695 30.428 62.835 97.499 0.068 32.322-22.403 60.121-48.442 71.713-6.37 2.835-25.652 8.543-34.461 8.543zM392.105 550.845h40.138v60.208h-40.138v-60.208zM392.105 461.968h40.138v57.341h-40.138v-57.341zM392.105 370.224h40.138v60.208h-40.138v-60.208zM392.105 281.347h40.138v60.208h-40.138v-60.208zM392.105 192.47h40.138v57.34h-40.138v-57.34zM392.105 109.326c0-33.309 40.138-25.767 40.138-5.733v57.34h-40.138v-51.607zM360.568 731.468c-107.167 56.706-58.534 209.292 43.005 209.292h17.202c84.606 0 145.223-114.441 71.009-188.557-6.947-6.936-18.303-18.146-28.004-20.735 0-31.642 2.543-618.492-1.057-635.422-11.402-53.632-86.194-53.501-99.491-1.257-6.767 26.588-2.665 594.717-2.665 636.679z"></path>
<path fill="#000" d="M767.684 625.387c-83.65 0-186.356-0.915-186.356-108.947 0-65.588 47.016-162.842 70.719-210.247 16.193-32.388 30.355-61.668 47.746-92.738l47.029-94.739c0.28 0.536 1.586 3.029 1.957 3.777 1.094 2.209 2.783 5.902 3.639 7.829 3.203 7.215 4.3 11.073 7.604 18.199l51.621 103.199c35.559 71.117 119.933 222.183 92.747 303.951-9.367 28.172-27.3 40.993-50.645 52.568-20.782 10.303-54.931 17.149-86.063 17.149zM549.791 522.175c0 49.074 24.326 83.164 53.998 103.687 64.689 44.746 335.916 65.017 335.916-97.954 0-111.948-64.067-216.94-111.814-312.505l-26.745-53.532c-8.952-19.352-16.858-34.231-25.667-54.61-4.33-10.017-7.948-18.671-11.018-29.12-4.385-14.922-3.845-26.158-19.713-26.158-15.047 0-19.172 30.128-29.047 54.096-49.231 119.488-165.91 292.359-165.91 416.094z"></path>
<path fill="#000" d="M188.546 40.516v43.006h-80.277c-14.814 0-17.853 7.595-22.936 17.202 3.28 6.198 4.995 14.335 14.335 14.335h88.877v34.404c-9.297 0-51.607-4.41-51.607 11.468 0 24.732 25.305 20.069 51.607 20.069v31.537h-83.143c-25.869 0-25.945 31.537 0 31.537h83.143v34.405c-47.548 0-55.898-4.921-48.739 25.803 20.656 4.812 24.052 2.867 48.739 2.867v34.405h-88.877c-8.284 0-12.557 8.47-13.080 12.449-1.875 14.238 9.026 19.088 24.549 19.088h77.409v31.537c-24.578 0-51.607-4.856-51.607 17.202 0 19.449 31.559 14.335 51.607 14.335v34.405h-88.877c-9.34 0-11.055 8.137-14.335 14.334 3.28 6.198 4.995 14.335 14.335 14.335h88.877v34.405c-27.443 0-51.607-5.541-51.607 17.202 0 18.714 34.477 14.335 51.607 14.335v31.537h-77.409c-14.571 0-24.971 3.899-24.592 17.129 0.218 7.603 5.595 14.408 13.123 14.408h88.877c0 24.981-2.009 30.682 2.868 51.607 8.757 2.096 28.67 11.104 28.67-22.936v-610.674c0-28.072-31.537-22.946-31.537-5.734z"></path>
<path fill="#000" d="M773.419 335.819c32.863-7.656 31.537 1.187 31.537 43.006 0 15.532-2.36 29.307-5.061 40.81-1.804 7.684-2.849 10.348-5.177 17.76-4.145 13.196-3.005 13.217-9.83 15.972 11.496-49.344-8.25-92.454-11.468-117.548zM741.881 335.819c0 25.031 32.331 73.268 1.024 178.779-8.92 30.061-8.021 21.384-3.891 39.114 19.092 4.448 21.245 7.187 47.634-32.643 9.939-15 16.657-27.197 25.020-43.787 16.957-33.637 37.514-118.534 16.282-152.99-22.362-36.29-86.070-20.794-86.070 11.527z"></path>
</svg>
