<svg width="28" height="28" viewBox="0 0 28 28" fill="none" xmlns="http://www.w3.org/2000/svg">
<g clip-path="url(#clip0_2468_19615)">
<rect width="28" height="28" rx="4" fill="#65A7EE"/>
<circle cx="28" cy="-0.5" r="20.5" fill="#E4F1FC" fill-opacity="0.2"/>
<path d="M11.7 22.0965L10.575 19.722L8.1 20.1969M11.7 6.89961L10.575 9.27412L8.1 8.79922M12.2265 17.3475H11.7M11.7 17.3475L9 23.0463M11.7 17.3475L10.35 14.4981M4.5 14.4981H10.35M10.35 14.4981L11.7 11.6486M11.7 11.6486L9 5.94981M11.7 11.6486H13.5M6.3 12.5984L7.65 14.4981L6.3 16.3977M20.7 16.9106C21.3863 17.3287 21.9227 17.9742 22.226 18.7469C22.5292 19.5196 22.5824 20.3762 22.3773 21.1841C22.1722 21.9919 21.7203 22.7058 21.0915 23.2149C20.4628 23.724 19.6925 24 18.9 24C18.1075 24 17.3372 23.724 16.7085 23.2149C16.0797 22.7058 15.6278 21.9919 15.4227 21.1841C15.2176 20.3762 15.2708 19.5196 15.574 18.7469C15.8773 17.9742 16.4137 17.3287 17.1 16.9106V6.89961C17.1 6.3958 17.2896 5.91263 17.6272 5.55638C17.9648 5.20014 18.4226 5 18.9 5C19.3774 5 19.8352 5.20014 20.1728 5.55638C20.5104 5.91263 20.7 6.3958 20.7 6.89961V16.9106Z" stroke="white" stroke-width="1.84" stroke-linecap="round" stroke-linejoin="round"/>
</g>
<defs>
<clipPath id="clip0_2468_19615">
<rect width="28" height="28" rx="4" fill="white"/>
</clipPath>
</defs>
</svg>
