<svg width="28" height="28" viewBox="0 0 28 28" fill="none" xmlns="http://www.w3.org/2000/svg">
<g clip-path="url(#clip0_2468_19628)">
<rect width="28" height="28" rx="4" fill="#65A7EE"/>
<circle cx="28" cy="-0.5" r="20.5" fill="#E4F1FC" fill-opacity="0.2"/>
<path d="M12.5 11.6487C11.6969 11.635 10.9126 11.9051 10.2718 12.4161C9.631 12.9271 9.17049 13.6495 8.96355 14.4685C8.7566 15.2875 8.81511 16.156 9.12976 16.9358C9.44441 17.7157 9.99713 18.3621 10.7 18.7722M12.5 5.94981V7.84942M7.63996 20.5767L6.37996 21.9064M5.3 15.4479H3.5M7.40605 10.0719L6.13705 8.73267M19.7 6.89961V16.9106C20.3863 17.3287 20.9227 17.9742 21.226 18.7469C21.5292 19.5196 21.5824 20.3763 21.3773 21.1841C21.1722 21.9919 20.7203 22.7058 20.0915 23.2149C19.4628 23.724 18.6925 24 17.9 24C17.1075 24 16.3372 23.724 15.7085 23.2149C15.0797 22.7058 14.6278 21.9919 14.4227 21.1841C14.2176 20.3763 14.2708 19.5196 14.574 18.7469C14.8773 17.9742 15.4137 17.3287 16.1 16.9106V6.89961C16.1 6.3958 16.2896 5.91263 16.6272 5.55638C16.9648 5.20014 17.4226 5 17.9 5C18.3774 5 18.8352 5.20014 19.1728 5.55638C19.5104 5.91263 19.7 6.3958 19.7 6.89961Z" stroke="white" stroke-width="1.84" stroke-linecap="round" stroke-linejoin="round"/>
</g>
<defs>
<clipPath id="clip0_2468_19628">
<rect width="28" height="28" rx="4" fill="white"/>
</clipPath>
</defs>
</svg>
