<svg width="28" height="28" viewBox="0 0 28 28" fill="none" xmlns="http://www.w3.org/2000/svg">
<g clip-path="url(#clip0_2492_12306)">
<rect width="28" height="28" rx="4" fill="#65A7EE"/>
<circle cx="28" cy="-0.5" r="20.5" fill="#E4F1FC" fill-opacity="0.2"/>
<path d="M17.29 12.3457C17.5813 11.8666 18.1852 11.6935 18.6807 11.9297L18.7783 11.9824L18.7822 11.9854L18.9395 12.0859L18.9434 12.0889C20.5554 13.1847 21.0783 15.3291 20.1514 17.0439L20.1494 17.0479L20.1406 17.0615L20.1445 17.0645L20.0654 17.1934L20.0703 17.1963L20.0146 17.2822L19.9668 17.3652L19.9629 17.3623L19.8838 17.4932L19.8799 17.4902L19.8672 17.5107L19.8652 17.5137C19.28 18.3749 18.4064 18.9358 17.4541 19.1484L20.1543 20.79C20.6654 21.1008 20.8282 21.7672 20.5176 22.2783L20.5146 22.2822L20.4141 22.4395L20.4111 22.4434C19.3153 24.0554 17.1709 24.5783 15.4561 23.6514L15.4521 23.6494L15.4375 23.6406L15.4355 23.6445L15.3066 23.5664L15.2734 23.5459L15.1348 23.4668L15.1367 23.4629L15.0068 23.3838L15.0088 23.3799C14.135 22.7949 13.5652 21.9156 13.3506 20.9551L11.71 23.6543C11.3992 24.1654 10.7328 24.3282 10.2217 24.0176L10.2178 24.0146L10.0605 23.9141L10.0566 23.9111C8.44457 22.8153 7.92171 20.6709 8.84863 18.9561L8.85059 18.9521L8.8584 18.9375L8.85547 18.9355L8.93359 18.8057L8.92969 18.8037L8.99512 18.7021L9.0332 18.6348L9.03613 18.6367L9.11621 18.5068L9.11914 18.5088L9.13281 18.4893L9.13477 18.4863C9.7199 17.6252 10.5932 17.0633 11.5449 16.8506L11.501 16.8242V16.8232L8.8457 15.21C8.33463 14.8992 8.17182 14.2328 8.48242 13.7217L8.48535 13.7178L8.58594 13.5605L8.58887 13.5566C9.65041 11.995 11.696 11.4553 13.3818 12.2656L13.5439 12.3486L13.5479 12.3506L13.5615 12.3584L13.5645 12.3555L13.7139 12.4463L13.7207 12.4502L13.8652 12.5332L13.8623 12.5371C14.8087 13.1198 15.4232 14.0374 15.6484 15.0439L17.29 12.3457ZM13.7354 18.1924C12.4122 17.4939 10.7584 17.936 9.9707 19.2314L9.8916 19.3613L9.76074 19.6045C9.17491 20.8329 9.598 22.3266 10.7773 23.0576L13.7354 18.1924ZM14.6924 18.7637C13.9933 20.0869 14.4357 21.7414 15.7314 22.5293L15.8613 22.6084L16.1045 22.7393C17.3332 23.3252 18.8267 22.9016 19.5576 21.7217L14.6924 18.7637ZM15.2637 17.8066C16.587 18.506 18.2413 18.0644 19.0293 16.7686L19.0654 16.71L19.1094 16.6357C19.8779 15.3681 19.4801 13.7206 18.2217 12.9414L15.2637 17.8066ZM13.1387 13.3916C11.8709 12.6211 10.2213 13.0187 9.44141 14.2773L14.3066 17.2354C15.0054 15.9121 14.5642 14.2585 13.2686 13.4707L13.1387 13.3916Z" fill="white" stroke="white" stroke-width="0.35"/>
<path d="M5.6342 7.32138C5.47477 7.468 5.4545 7.72769 5.58894 7.9015L7.10013 9.85363C7.17191 9.94636 7.27757 10 7.38889 10C7.5002 10 7.60586 9.94636 7.67765 9.85363L9.18883 7.9015C9.32328 7.72769 9.30301 7.468 9.14358 7.32138C8.98411 7.17484 8.74584 7.19694 8.61132 7.37071L7.76669 8.46178L7.76669 5.41176C7.76669 5.18435 7.59754 5 7.38889 5C7.18024 5 7.01109 5.18435 7.01109 5.41176L7.01109 8.46178L6.16646 7.37071C6.03194 7.19694 5.79367 7.17484 5.6342 7.32138Z" fill="white"/>
<path d="M12.2453 7.32138C12.0859 7.468 12.0656 7.72769 12.2001 7.9015L13.7112 9.85363C13.783 9.94636 13.8887 10 14 10C14.1113 10 14.217 9.94636 14.2888 9.85363L15.7999 7.9015C15.9344 7.72769 15.9141 7.468 15.7547 7.32138C15.5952 7.17484 15.357 7.19694 15.2224 7.37071L14.3778 8.46178V5.41176C14.3778 5.18435 14.2087 5 14 5C13.7913 5 13.6222 5.18435 13.6222 5.41176V8.46178L12.7776 7.37071C12.643 7.19694 12.4048 7.17484 12.2453 7.32138Z" fill="white"/>
<path d="M18.8564 7.32138C18.697 7.468 18.6767 7.72769 18.8112 7.9015L20.3224 9.85363C20.3941 9.94636 20.4998 10 20.6111 10C20.7224 10 20.8281 9.94636 20.8999 9.85363L22.4111 7.9015C22.5455 7.72769 22.5252 7.468 22.3658 7.32138C22.2063 7.17484 21.9681 7.19694 21.8335 7.37071L20.9889 8.46178V5.41176C20.9889 5.18435 20.8198 5 20.6111 5C20.4025 5 20.2333 5.18435 20.2333 5.41176V8.46178L19.3887 7.37071C19.2542 7.19694 19.0159 7.17484 18.8564 7.32138Z" fill="white"/>
<path d="M5.6342 7.32138C5.47477 7.468 5.4545 7.72769 5.58894 7.9015L7.10013 9.85363C7.17191 9.94636 7.27757 10 7.38889 10C7.5002 10 7.60586 9.94636 7.67765 9.85363L9.18883 7.9015C9.32328 7.72769 9.30301 7.468 9.14358 7.32138C8.98411 7.17484 8.74584 7.19694 8.61132 7.37071L7.76669 8.46178L7.76669 5.41176C7.76669 5.18435 7.59754 5 7.38889 5C7.18024 5 7.01109 5.18435 7.01109 5.41176L7.01109 8.46178L6.16646 7.37071C6.03194 7.19694 5.79367 7.17484 5.6342 7.32138Z" stroke="white" stroke-width="0.35" stroke-linecap="round" stroke-linejoin="round"/>
<path d="M12.2453 7.32138C12.0859 7.468 12.0656 7.72769 12.2001 7.9015L13.7112 9.85363C13.783 9.94636 13.8887 10 14 10C14.1113 10 14.217 9.94636 14.2888 9.85363L15.7999 7.9015C15.9344 7.72769 15.9141 7.468 15.7547 7.32138C15.5952 7.17484 15.357 7.19694 15.2224 7.37071L14.3778 8.46178V5.41176C14.3778 5.18435 14.2087 5 14 5C13.7913 5 13.6222 5.18435 13.6222 5.41176V8.46178L12.7776 7.37071C12.643 7.19694 12.4048 7.17484 12.2453 7.32138Z" stroke="white" stroke-width="0.35" stroke-linecap="round" stroke-linejoin="round"/>
<path d="M18.8564 7.32138C18.697 7.468 18.6767 7.72769 18.8112 7.9015L20.3224 9.85363C20.3941 9.94636 20.4998 10 20.6111 10C20.7224 10 20.8281 9.94636 20.8999 9.85363L22.4111 7.9015C22.5455 7.72769 22.5252 7.468 22.3658 7.32138C22.2063 7.17484 21.9681 7.19694 21.8335 7.37071L20.9889 8.46178V5.41176C20.9889 5.18435 20.8198 5 20.6111 5C20.4025 5 20.2333 5.18435 20.2333 5.41176V8.46178L19.3887 7.37071C19.2542 7.19694 19.0159 7.17484 18.8564 7.32138Z" stroke="white" stroke-width="0.35" stroke-linecap="round" stroke-linejoin="round"/>
</g>
<defs>
<clipPath id="clip0_2492_12306">
<rect width="28" height="28" rx="4" fill="white"/>
</clipPath>
</defs>
</svg>
