<!-- Generated by IcoMoon.io -->
<svg version="1.1" xmlns="http://www.w3.org/2000/svg" width="32" height="32" viewBox="0 0 32 32">
<path d="M29.641 19.425h-2.212c-0.344 0-0.639-0.295-0.639-0.639v-3.392c0-0.59-0.492-1.081-1.081-1.081h-0.787c-0.344 0-0.639-0.295-0.639-0.639s0.295-0.639 0.639-0.639h0.787c1.327 0 2.359 1.081 2.359 2.36v2.753h1.524c0.59 0 1.081-0.492 1.081-1.081v-8.946c0-0.59-0.492-1.081-1.081-1.081h-27.232c-0.59 0-1.081 0.492-1.081 1.081v8.946c0 0.59 0.492 1.081 1.081 1.081h1.573v-2.753c0-1.327 1.081-2.36 2.359-2.36h0.786c0.344 0 0.639 0.295 0.639 0.639s-0.295 0.639-0.639 0.639h-0.786c-0.59 0-1.081 0.492-1.081 1.081v3.392c0 0.344-0.295 0.639-0.639 0.639h-2.212c-1.278 0-2.359-1.081-2.359-2.36v-8.946c0-1.278 1.081-2.359 2.359-2.359h27.281c1.327 0 2.359 1.081 2.359 2.359v8.946c0 1.278-1.081 2.36-2.359 2.36z"></path>
<path d="M8.258 10.577h-7.619c-0.344 0-0.639-0.295-0.639-0.639s0.295-0.639 0.639-0.639h7.619c0.344 0 0.639 0.295 0.639 0.639s-0.295 0.639-0.639 0.639z"></path>
<path d="M31.361 10.577h-7.619c-0.344 0-0.639-0.295-0.639-0.639s0.295-0.639 0.639-0.639h7.619c0.344 0 0.639 0.295 0.639 0.639s-0.295 0.639-0.639 0.639z"></path>
<path d="M12.768 16.287c-0.155-0.204-0.414-0.306-0.672-0.306s-0.517 0.102-0.672 0.306c-0.259 0.357-0.983 1.429-1.655 2.654-0.362 0.612-0.672 1.276-0.931 1.889s-0.414 1.174-0.414 1.684c0 2.042 1.655 3.675 3.672 3.675s3.672-1.633 3.672-3.675c0-0.51-0.155-1.072-0.414-1.684s-0.569-1.276-0.931-1.889c-0.672-1.225-1.396-2.297-1.655-2.654zM23.525 21.136c0-0.459-0.155-0.97-0.362-1.48-0.207-0.561-0.517-1.123-0.827-1.684-0.621-1.072-1.241-2.042-1.5-2.348-0.155-0.204-0.414-0.306-0.621-0.306-0.259 0-0.465 0.102-0.621 0.306-0.207 0.306-0.879 1.276-1.5 2.348-0.31 0.561-0.569 1.123-0.827 1.684-0.207 0.561-0.362 1.072-0.362 1.48 0 1.787 1.448 3.267 3.258 3.267s3.362-1.48 3.362-3.267zM20.163 15.98c0-0.051 0.052-0.051 0.103-0.051s0.103 0 0.103 0.051c0.465 0.664 1.086 1.633 1.603 2.603 0.259 0.459 0.465 0.97 0.621 1.378 0.155 0.459 0.259 0.817 0.259 1.123 0 1.429-1.138 2.603-2.586 2.603s-2.638-1.174-2.638-2.603c0-0.306 0.103-0.715 0.259-1.123 0.155-0.459 0.414-0.919 0.621-1.378 0.517-0.97 1.189-1.94 1.655-2.603zM22.128 21.136c0-0.153-0.155-0.306-0.31-0.306-0.207 0-0.31 0.153-0.31 0.306 0 0.664-0.569 1.225-1.241 1.225-0.207 0-0.31 0.153-0.31 0.306 0 0.204 0.155 0.306 0.31 0.306 1.034 0 1.862-0.817 1.862-1.838zM15.405 9.957c-0.207 0.255-0.724 1.021-1.19 1.889-0.259 0.459-0.465 0.919-0.672 1.327-0.155 0.459-0.31 0.868-0.31 1.225 0 1.48 1.19 2.705 2.689 2.705s2.689-1.225 2.689-2.705c0-0.357-0.103-0.766-0.31-1.225-0.155-0.459-0.414-0.919-0.672-1.327-0.465-0.868-1.034-1.633-1.189-1.889-0.155-0.357-0.724-0.357-1.034 0zM15.922 10.315c0.052 0 0.052 0 0 0 0.052 0 0.052 0 0.052 0 0.362 0.51 0.879 1.327 1.293 2.093 0.207 0.408 0.414 0.766 0.517 1.123 0.155 0.357 0.207 0.664 0.207 0.919 0 1.123-0.931 2.042-2.069 2.042s-2.069-0.919-2.069-2.042c0-0.255 0.052-0.561 0.207-0.919s0.31-0.715 0.517-1.123c0.465-0.817 0.983-1.582 1.345-2.093zM12.095 25.525c-1.655 0-3.051-1.378-3.051-3.012 0-0.408 0.155-0.97 0.414-1.582s0.569-1.225 0.931-1.837c0.621-1.123 1.293-2.093 1.5-2.399l0.052-0.051c0.052-0.051 0.103-0.102 0.155-0.102s0.103 0.051 0.155 0.102c0.155 0.204 0.879 1.225 1.552 2.45 0.362 0.612 0.672 1.225 0.931 1.837s0.414 1.174 0.414 1.582c-0.052 1.633-1.396 3.012-3.051 3.012zM11.733 24.453c0 0.204 0.155 0.306 0.31 0.306 1.241 0 2.276-1.021 2.276-2.246 0-0.204-0.155-0.306-0.31-0.306-0.207 0-0.31 0.153-0.31 0.306 0 0.919-0.724 1.633-1.655 1.633-0.155 0-0.31 0.153-0.31 0.306zM16.957 14.092c-0.207 0-0.31 0.153-0.31 0.306 0 0.357-0.31 0.664-0.672 0.664-0.207 0-0.31 0.153-0.31 0.306 0 0.204 0.155 0.306 0.31 0.306 0.724 0 1.293-0.561 1.293-1.276 0-0.153-0.103-0.306-0.31-0.306z"></path>
<path d="M12.095 26.24c-2.069 0-3.775-1.684-3.775-3.726 0-0.459 0.155-1.021 0.414-1.735 0.207-0.561 0.517-1.174 0.931-1.889 0.672-1.225 1.396-2.246 1.707-2.654 0.103-0.255 0.414-0.357 0.672-0.357 0.31 0 0.569 0.153 0.776 0.357 0.207 0.306 0.983 1.429 1.707 2.654 0.414 0.715 0.672 1.327 0.931 1.889 0.259 0.715 0.414 1.276 0.414 1.735-0.052 2.042-1.707 3.726-3.775 3.726zM12.044 16.031c-0.259 0-0.465 0.102-0.621 0.306-0.259 0.408-0.983 1.429-1.655 2.654-0.362 0.715-0.672 1.327-0.931 1.889-0.207 0.612-0.362 1.174-0.362 1.633 0 1.991 1.603 3.573 3.62 3.573 1.965 0 3.62-1.582 3.62-3.573 0-0.459-0.155-1.021-0.414-1.684-0.207-0.561-0.517-1.174-0.931-1.889-0.672-1.225-1.448-2.348-1.655-2.654-0.155-0.153-0.414-0.255-0.672-0.255zM12.095 25.627c-1.707 0-3.103-1.378-3.103-3.114 0-0.408 0.155-0.97 0.414-1.633 0.207-0.561 0.517-1.174 0.931-1.838 0.569-1.123 1.241-2.093 1.448-2.399l0.052-0.051c0.052-0.051 0.155-0.102 0.207-0.102 0.103 0 0.155 0.051 0.207 0.102 0.155 0.204 0.879 1.225 1.552 2.45 0.414 0.664 0.724 1.327 0.931 1.838 0.259 0.664 0.414 1.225 0.414 1.633 0.052 1.684-1.345 3.114-3.051 3.114zM12.095 16.644c-0.052 0-0.052 0-0.103 0.051l-0.052 0.051c-0.207 0.306-0.879 1.276-1.5 2.399-0.414 0.664-0.724 1.276-0.931 1.787-0.259 0.664-0.414 1.174-0.414 1.582 0 1.633 1.345 2.96 2.948 2.96 1.655 0 2.948-1.327 2.948-2.96 0-0.408-0.155-0.919-0.414-1.582-0.207-0.51-0.517-1.174-0.931-1.837-0.672-1.225-1.396-2.246-1.552-2.399 0.052-0.051 0-0.051 0-0.051zM12.095 24.862c-0.207 0-0.414-0.153-0.414-0.408 0-0.204 0.155-0.357 0.362-0.357 0.879 0 1.552-0.715 1.552-1.582 0-0.204 0.155-0.408 0.414-0.408 0.207 0 0.414 0.153 0.414 0.408 0 1.276-1.034 2.348-2.327 2.348zM14.009 22.259c-0.155 0-0.259 0.102-0.259 0.255 0 0.97-0.776 1.736-1.707 1.736-0.103 0-0.207 0.102-0.207 0.204 0 0.153 0.104 0.255 0.259 0.255 1.19 0 2.172-0.97 2.172-2.195 0-0.153-0.103-0.255-0.259-0.255zM20.267 24.453c-1.862 0-3.362-1.48-3.362-3.318 0-0.408 0.104-0.919 0.362-1.531 0.207-0.51 0.465-1.072 0.827-1.684 0.672-1.174 1.345-2.144 1.5-2.348s0.414-0.357 0.672-0.357c0.31 0 0.569 0.153 0.724 0.357 0.724 1.021 1.189 1.838 1.5 2.348 0.362 0.613 0.621 1.174 0.827 1.684 0.259 0.613 0.362 1.123 0.362 1.531-0.052 1.838-1.552 3.318-3.413 3.318zM20.267 15.368c-0.259 0-0.465 0.102-0.569 0.306-0.103 0.102-0.828 1.123-1.5 2.348-0.362 0.613-0.621 1.174-0.776 1.633-0.207 0.612-0.362 1.072-0.362 1.48 0 1.735 1.448 3.165 3.206 3.165s3.206-1.429 3.206-3.165c0-0.408-0.103-0.868-0.362-1.48-0.207-0.51-0.465-1.021-0.776-1.633-0.259-0.51-0.776-1.327-1.448-2.348-0.155-0.204-0.362-0.306-0.621-0.306zM20.267 23.841c-1.5 0-2.741-1.225-2.741-2.705 0-0.306 0.104-0.715 0.259-1.174 0.155-0.408 0.362-0.868 0.672-1.429 0.621-1.174 1.345-2.195 1.603-2.603 0.052-0.102 0.259-0.102 0.362 0 0.259 0.408 0.983 1.429 1.603 2.603 0.259 0.51 0.517 1.021 0.672 1.429 0.155 0.459 0.259 0.868 0.259 1.174 0 0.715-0.259 1.378-0.776 1.94-0.517 0.459-1.189 0.766-1.914 0.766zM20.163 15.98l0.052 0.051c-0.259 0.408-0.983 1.429-1.603 2.603-0.259 0.51-0.465 0.97-0.621 1.378-0.155 0.459-0.259 0.817-0.259 1.123 0 1.429 1.138 2.552 2.586 2.552 0.672 0 1.293-0.255 1.81-0.766 0.465-0.459 0.724-1.123 0.724-1.787 0-0.306-0.103-0.664-0.259-1.123-0.155-0.408-0.362-0.868-0.621-1.378-0.621-1.174-1.345-2.195-1.603-2.603h-0.103l-0.103-0.051zM20.267 23.075c-0.207 0-0.414-0.153-0.414-0.408s0.155-0.408 0.414-0.408c0.621 0 1.138-0.51 1.138-1.174 0-0.204 0.155-0.408 0.414-0.408 0.207 0 0.362 0.153 0.414 0.357 0 1.174-0.879 2.042-1.965 2.042zM21.818 20.881c-0.155 0-0.259 0.102-0.259 0.255 0 0.715-0.569 1.327-1.293 1.327-0.155 0-0.259 0.102-0.259 0.255s0.103 0.255 0.259 0.255c0.983 0 1.81-0.817 1.81-1.787 0-0.204-0.103-0.306-0.259-0.306zM15.974 17.205c-1.552 0-2.793-1.225-2.793-2.756 0-0.357 0.103-0.766 0.31-1.225 0.155-0.459 0.362-0.919 0.672-1.429 0.465-0.817 0.983-1.582 1.19-1.889 0.155-0.204 0.414-0.306 0.672-0.306s0.465 0.102 0.621 0.306c0.052 0.102 0.621 0.919 1.189 1.889 0.259 0.51 0.517 0.97 0.672 1.378 0.207 0.51 0.31 0.919 0.31 1.276-0.052 1.48-1.293 2.705-2.844 2.756zM15.974 9.753c-0.207 0-0.414 0.102-0.517 0.255-0.207 0.306-0.724 1.072-1.19 1.889-0.259 0.51-0.517 0.919-0.621 1.327-0.207 0.459-0.259 0.868-0.259 1.174 0 1.429 1.19 2.603 2.638 2.603s2.638-1.174 2.638-2.603c0-0.306-0.103-0.715-0.259-1.225-0.155-0.408-0.362-0.868-0.621-1.327-0.569-0.97-1.138-1.787-1.189-1.889-0.207-0.102-0.414-0.204-0.621-0.204zM15.974 16.542c-1.19 0-2.12-0.97-2.12-2.144 0-0.255 0.052-0.561 0.207-0.919 0.103-0.306 0.31-0.715 0.517-1.123 0.362-0.664 0.827-1.48 1.293-2.093l0.052-0.051h0.052l0.103 0.051c0.465 0.664 0.931 1.429 1.293 2.093 0.207 0.408 0.414 0.817 0.517 1.123 0.155 0.357 0.207 0.664 0.207 0.919 0.052 1.174-0.931 2.144-2.12 2.144zM15.974 10.366c-0.465 0.613-0.931 1.378-1.293 2.042-0.207 0.408-0.414 0.766-0.517 1.123-0.155 0.357-0.207 0.664-0.207 0.868 0 1.072 0.879 1.991 1.965 1.991s1.965-0.868 1.965-1.991c0-0.204-0.052-0.51-0.207-0.868-0.104-0.306-0.31-0.715-0.517-1.123-0.259-0.613-0.724-1.378-1.19-2.042zM15.974 15.776c-0.207 0-0.414-0.153-0.414-0.408s0.155-0.408 0.414-0.408c0.31 0 0.569-0.255 0.569-0.561 0-0.204 0.155-0.408 0.414-0.408 0.207 0 0.414 0.153 0.414 0.408 0 0.766-0.621 1.378-1.396 1.378zM16.957 14.194c-0.155 0-0.259 0.102-0.259 0.255 0 0.408-0.31 0.715-0.724 0.715-0.155 0-0.259 0.102-0.259 0.255s0.103 0.255 0.259 0.255c0.672 0 1.241-0.561 1.241-1.225 0-0.153-0.103-0.255-0.259-0.255z"></path>
</svg>
