<!-- Generated by IcoMoon.io -->
<svg version="1.1" xmlns="http://www.w3.org/2000/svg" width="32" height="32" viewBox="0 0 32 32">
<path d="M29.641 14.446h-2.212c-0.344 0-0.639-0.298-0.639-0.646v-3.427c0-0.596-0.492-1.093-1.081-1.093h-0.787c-0.344 0-0.639-0.298-0.639-0.646s0.295-0.646 0.639-0.646h0.787c1.327 0 2.359 1.093 2.359 2.384v2.781h1.524c0.59 0 1.081-0.497 1.081-1.093v-9.039c0-0.596-0.492-1.093-1.081-1.093h-27.232c-0.59 0-1.081 0.497-1.081 1.093v9.039c0 0.596 0.492 1.093 1.081 1.093h1.573v-2.781c0-1.341 1.081-2.384 2.359-2.384h0.786c0.344 0 0.639 0.298 0.639 0.646s-0.295 0.646-0.639 0.646h-0.786c-0.59 0-1.081 0.497-1.081 1.093v3.427c0 0.348-0.295 0.646-0.639 0.646h-2.212c-1.278 0-2.359-1.093-2.359-2.384v-9.039c0-1.291 1.081-2.384 2.359-2.384h27.281c1.327 0 2.359 1.093 2.359 2.384v9.039c0 1.291-1.081 2.384-2.359 2.384z"></path>
<path d="M17.647 12.261c-0.147 0-0.344-0.050-0.442-0.199-0.246-0.248-0.246-0.646 0-0.944l3.49-3.526c0.246-0.248 0.639-0.248 0.934 0 0.246 0.248 0.246 0.646 0 0.944l-3.539 3.526c-0.147 0.099-0.295 0.199-0.442 0.199z"></path>
<path d="M22.906 9.033c-0.049 0-0.049 0-0.098 0l-1.819-0.298c-0.295-0.050-0.492-0.248-0.541-0.546l-0.295-1.837c-0.049-0.348 0.197-0.695 0.541-0.745s0.688 0.199 0.737 0.546l0.246 1.341 1.327 0.248c0.344 0.050 0.59 0.397 0.541 0.745s-0.344 0.546-0.639 0.546z"></path>
<path d="M23.201 13.9h-4.866c-0.344 0-0.639-0.298-0.639-0.646s0.295-0.646 0.639-0.646h4.866c0.344 0 0.639 0.298 0.639 0.646 0.049 0.348-0.246 0.646-0.639 0.646z"></path>
<path d="M24.283 15.39c-0.197 0-0.393-0.099-0.541-0.298l-1.081-1.49c-0.148-0.248-0.148-0.546 0-0.745l1.081-1.49c0.197-0.298 0.59-0.348 0.885-0.149s0.344 0.596 0.147 0.894l-0.787 1.142 0.787 1.142c0.197 0.298 0.147 0.695-0.147 0.894-0.098 0.050-0.197 0.099-0.344 0.099z"></path>
<path d="M21.088 19.065c-0.147 0-0.344-0.050-0.442-0.199l-3.441-3.476c-0.246-0.248-0.246-0.646 0-0.944 0.246-0.248 0.639-0.248 0.934 0l3.441 3.476c0.246 0.248 0.246 0.646 0 0.944-0.148 0.099-0.295 0.199-0.492 0.199z"></path>
<path d="M20.793 20.852c-0.049 0-0.049 0-0.098 0-0.344-0.050-0.59-0.397-0.541-0.745l0.295-1.837c0.049-0.298 0.246-0.497 0.541-0.546l1.819-0.298c0.344-0.050 0.688 0.199 0.737 0.546s-0.197 0.695-0.541 0.745l-1.327 0.248-0.246 1.341c-0.049 0.348-0.295 0.546-0.639 0.546z"></path>
<path d="M16.025 21.2c-0.344 0-0.639-0.298-0.639-0.646v-4.917c0-0.348 0.295-0.646 0.639-0.646s0.639 0.298 0.639 0.646v4.917c0 0.348-0.295 0.646-0.639 0.646z"></path>
<path d="M14.501 22.243c-0.197 0-0.393-0.099-0.541-0.298-0.197-0.298-0.147-0.695 0.147-0.894l1.475-1.093c0.246-0.149 0.541-0.149 0.737 0l1.475 1.093c0.295 0.199 0.344 0.596 0.147 0.894s-0.59 0.348-0.885 0.149l-1.131-0.795-1.131 0.795c0 0.149-0.147 0.149-0.295 0.149z"></path>
<path d="M10.912 19.065c-0.147 0-0.344-0.050-0.442-0.199-0.246-0.248-0.246-0.646 0-0.944l3.441-3.476c0.246-0.248 0.639-0.248 0.934 0 0.246 0.248 0.246 0.646 0 0.944l-3.441 3.476c-0.197 0.099-0.344 0.199-0.492 0.199z"></path>
<path d="M11.207 20.852c-0.295 0-0.59-0.248-0.639-0.546l-0.246-1.341-1.327-0.248c-0.344-0.050-0.59-0.397-0.541-0.745s0.393-0.596 0.737-0.546l1.819 0.298c0.295 0.050 0.492 0.248 0.541 0.546l0.295 1.837c0.049 0.348-0.197 0.695-0.541 0.745-0.049 0-0.049 0-0.098 0z"></path>
<path d="M13.665 13.9h-4.866c-0.344 0-0.639-0.298-0.639-0.646s0.295-0.646 0.639-0.646h4.866c0.344 0 0.639 0.298 0.639 0.646s-0.295 0.646-0.639 0.646z"></path>
<path d="M7.717 15.39c-0.147 0-0.246-0.050-0.393-0.099-0.295-0.199-0.344-0.596-0.147-0.894l0.787-1.142-0.787-1.142c-0.197-0.298-0.147-0.695 0.147-0.894s0.688-0.149 0.885 0.149l1.081 1.49c0.147 0.248 0.147 0.546 0 0.745l-1.081 1.49c-0.098 0.199-0.295 0.298-0.492 0.298z"></path>
<path d="M14.353 12.211c-0.147 0-0.344-0.050-0.442-0.199l-3.441-3.476c-0.246-0.248-0.246-0.646 0-0.944 0.246-0.248 0.639-0.248 0.934 0l3.441 3.476c0.246 0.248 0.246 0.646 0 0.944-0.197 0.149-0.344 0.199-0.492 0.199z"></path>
<path d="M9.094 9.033c-0.295 0-0.59-0.248-0.639-0.546-0.049-0.348 0.197-0.695 0.541-0.745l1.327-0.248 0.246-1.341c0.049-0.348 0.393-0.596 0.737-0.546s0.59 0.397 0.541 0.745l-0.295 1.837c-0.049 0.298-0.246 0.497-0.541 0.546l-1.819 0.298c-0.049 0-0.049 0-0.098 0z"></path>
<path d="M16.025 11.516c-0.344 0-0.639-0.298-0.639-0.646v-4.917c0-0.348 0.295-0.646 0.639-0.646s0.639 0.298 0.639 0.646v4.917c0 0.348-0.295 0.646-0.639 0.646z"></path>
<path d="M16.025 6.599c-0.147 0-0.246-0.050-0.393-0.099l-1.475-1.093c-0.295-0.199-0.344-0.596-0.147-0.894s0.59-0.348 0.885-0.149l1.131 0.795 1.131-0.795c0.295-0.199 0.688-0.149 0.885 0.149s0.147 0.695-0.147 0.894l-1.475 1.093c-0.148 0.050-0.295 0.099-0.393 0.099z"></path>
<path d="M8.258 5.507h-7.619c-0.344 0-0.639-0.298-0.639-0.646s0.295-0.646 0.639-0.646h7.619c0.344 0 0.639 0.298 0.639 0.646s-0.295 0.646-0.639 0.646z"></path>
<path d="M31.361 5.507h-7.619c-0.344 0-0.639-0.298-0.639-0.646s0.295-0.646 0.639-0.646h7.619c0.344 0 0.639 0.298 0.639 0.646s-0.295 0.646-0.639 0.646z"></path>
<path d="M16.025 30.735c-0.344 0-0.639-0.298-0.639-0.646v-4.768c0-0.348 0.295-0.646 0.639-0.646s0.639 0.298 0.639 0.646v4.768c0 0.348-0.295 0.646-0.639 0.646z"></path>
<path d="M24.528 30.735c-0.344 0-0.639-0.298-0.639-0.646v-9.535c0-0.348 0.295-0.646 0.639-0.646s0.639 0.298 0.639 0.646v9.535c0 0.348-0.295 0.646-0.639 0.646z"></path>
<path d="M7.472 30.735c-0.344 0-0.639-0.298-0.639-0.646v-9.535c0-0.348 0.295-0.646 0.639-0.646s0.639 0.298 0.639 0.646v9.535c0.049 0.348-0.246 0.646-0.639 0.646z"></path>
</svg>
