<!-- Generated by IcoMoon.io -->
<svg version="1.1" xmlns="http://www.w3.org/2000/svg" width="32" height="32" viewBox="0 0 32 32">
<path d="M29.641 18.785h-2.212c-0.344 0-0.639-0.295-0.639-0.639v-3.392c0-0.59-0.492-1.081-1.081-1.081h-0.787c-0.344 0-0.639-0.295-0.639-0.639s0.295-0.639 0.639-0.639h0.787c1.327 0 2.359 1.081 2.359 2.36v2.753h1.524c0.59 0 1.081-0.492 1.081-1.081v-8.946c0-0.59-0.492-1.081-1.081-1.081h-27.232c-0.59 0-1.081 0.492-1.081 1.081v8.946c0 0.59 0.492 1.081 1.081 1.081h1.573v-2.753c0-1.327 1.081-2.36 2.359-2.36h0.786c0.344 0 0.639 0.295 0.639 0.639s-0.295 0.639-0.639 0.639h-0.786c-0.59 0-1.081 0.492-1.081 1.081v3.392c0 0.344-0.295 0.639-0.639 0.639h-2.212c-1.278 0-2.359-1.081-2.359-2.36v-8.946c0-1.278 1.081-2.359 2.359-2.359h27.281c1.327 0 2.359 1.081 2.359 2.359v8.946c0 1.278-1.081 2.36-2.359 2.36z"></path>
<path d="M17.647 16.622c-0.147 0-0.344-0.049-0.442-0.197-0.246-0.246-0.246-0.639 0-0.934l3.49-3.49c0.246-0.246 0.639-0.246 0.934 0 0.246 0.246 0.246 0.639 0 0.934l-3.539 3.49c-0.147 0.098-0.295 0.197-0.442 0.197z"></path>
<path d="M22.906 13.427c-0.049 0-0.049 0-0.098 0l-1.819-0.295c-0.295-0.049-0.492-0.246-0.541-0.541l-0.295-1.819c-0.049-0.344 0.197-0.688 0.541-0.737s0.688 0.197 0.737 0.541l0.246 1.327 1.327 0.246c0.344 0.049 0.59 0.393 0.541 0.737s-0.344 0.541-0.639 0.541z"></path>
<path d="M23.201 18.244h-4.866c-0.344 0-0.639-0.295-0.639-0.639s0.295-0.639 0.639-0.639h4.866c0.344 0 0.639 0.295 0.639 0.639 0.049 0.344-0.246 0.639-0.639 0.639z"></path>
<path d="M24.283 19.719c-0.197 0-0.393-0.098-0.541-0.295l-1.081-1.475c-0.148-0.246-0.148-0.541 0-0.737l1.081-1.475c0.197-0.295 0.59-0.344 0.885-0.148s0.344 0.59 0.147 0.885l-0.787 1.131 0.787 1.131c0.197 0.295 0.147 0.688-0.147 0.885-0.098 0.049-0.197 0.098-0.344 0.098z"></path>
<path d="M21.088 23.357c-0.147 0-0.344-0.049-0.442-0.197l-3.441-3.441c-0.246-0.246-0.246-0.639 0-0.934 0.246-0.246 0.639-0.246 0.934 0l3.441 3.441c0.246 0.246 0.246 0.639 0 0.934-0.148 0.098-0.295 0.197-0.492 0.197z"></path>
<path d="M20.793 25.126c-0.049 0-0.049 0-0.098 0-0.344-0.049-0.59-0.393-0.541-0.737l0.295-1.819c0.049-0.295 0.246-0.492 0.541-0.541l1.819-0.295c0.344-0.049 0.688 0.197 0.737 0.541s-0.197 0.688-0.541 0.737l-1.327 0.246-0.246 1.327c-0.049 0.344-0.295 0.541-0.639 0.541z"></path>
<path d="M16.025 25.47c-0.344 0-0.639-0.295-0.639-0.639v-4.866c0-0.344 0.295-0.639 0.639-0.639s0.639 0.295 0.639 0.639v4.866c0 0.344-0.295 0.639-0.639 0.639z"></path>
<path d="M14.501 26.503c-0.197 0-0.393-0.098-0.541-0.295-0.197-0.295-0.147-0.688 0.147-0.885l1.475-1.081c0.246-0.147 0.541-0.147 0.737 0l1.475 1.081c0.295 0.197 0.344 0.59 0.147 0.885s-0.59 0.344-0.885 0.148l-1.131-0.787-1.131 0.787c0 0.147-0.147 0.147-0.295 0.147z"></path>
<path d="M10.912 23.357c-0.147 0-0.344-0.049-0.442-0.197-0.246-0.246-0.246-0.639 0-0.934l3.441-3.441c0.246-0.246 0.639-0.246 0.934 0 0.246 0.246 0.246 0.639 0 0.934l-3.441 3.441c-0.197 0.098-0.344 0.197-0.492 0.197z"></path>
<path d="M11.207 25.126c-0.295 0-0.59-0.246-0.639-0.541l-0.246-1.327-1.327-0.246c-0.344-0.049-0.59-0.393-0.541-0.737s0.393-0.59 0.737-0.541l1.819 0.295c0.295 0.049 0.492 0.246 0.541 0.541l0.295 1.819c0.049 0.344-0.197 0.688-0.541 0.737-0.049 0-0.049 0-0.098 0z"></path>
<path d="M13.665 18.244h-4.866c-0.344 0-0.639-0.295-0.639-0.639s0.295-0.639 0.639-0.639h4.866c0.344 0 0.639 0.295 0.639 0.639s-0.295 0.639-0.639 0.639z"></path>
<path d="M7.717 19.719c-0.147 0-0.246-0.049-0.393-0.098-0.295-0.197-0.344-0.59-0.147-0.885l0.787-1.131-0.787-1.131c-0.197-0.295-0.147-0.688 0.147-0.885s0.688-0.147 0.885 0.148l1.081 1.475c0.147 0.246 0.147 0.541 0 0.737l-1.081 1.475c-0.098 0.197-0.295 0.295-0.492 0.295z"></path>
<path d="M14.353 16.573c-0.147 0-0.344-0.049-0.442-0.197l-3.441-3.441c-0.246-0.246-0.246-0.639 0-0.934 0.246-0.246 0.639-0.246 0.934 0l3.441 3.441c0.246 0.246 0.246 0.639 0 0.934-0.197 0.147-0.344 0.197-0.492 0.197z"></path>
<path d="M9.094 13.427c-0.295 0-0.59-0.246-0.639-0.541-0.049-0.344 0.197-0.688 0.541-0.737l1.327-0.246 0.246-1.327c0.049-0.344 0.393-0.59 0.737-0.541s0.59 0.393 0.541 0.737l-0.295 1.819c-0.049 0.295-0.246 0.492-0.541 0.541l-1.819 0.295c-0.049 0-0.049 0-0.098 0z"></path>
<path d="M16.025 15.885c-0.344 0-0.639-0.295-0.639-0.639v-4.866c0-0.344 0.295-0.639 0.639-0.639s0.639 0.295 0.639 0.639v4.866c0 0.344-0.295 0.639-0.639 0.639z"></path>
<path d="M16.025 11.019c-0.147 0-0.246-0.049-0.393-0.098l-1.475-1.081c-0.295-0.197-0.344-0.59-0.147-0.885s0.59-0.344 0.885-0.147l1.131 0.786 1.131-0.786c0.295-0.197 0.688-0.147 0.885 0.147s0.147 0.688-0.147 0.885l-1.475 1.081c-0.148 0.049-0.295 0.098-0.393 0.098z"></path>
<path d="M8.258 9.937h-7.619c-0.344 0-0.639-0.295-0.639-0.639s0.295-0.639 0.639-0.639h7.619c0.344 0 0.639 0.295 0.639 0.639s-0.295 0.639-0.639 0.639z"></path>
<path d="M31.361 9.937h-7.619c-0.344 0-0.639-0.295-0.639-0.639s0.295-0.639 0.639-0.639h7.619c0.344 0 0.639 0.295 0.639 0.639s-0.295 0.639-0.639 0.639z"></path>
</svg>
