<!-- Generated by IcoMoon.io -->
<svg version="1.1" xmlns="http://www.w3.org/2000/svg" width="32" height="32" viewBox="0 0 32 32">
<path d="M29.641 19.745h-2.212c-0.344 0-0.639-0.295-0.639-0.639v-3.392c0-0.59-0.492-1.081-1.081-1.081h-0.787c-0.344 0-0.639-0.295-0.639-0.639s0.295-0.639 0.639-0.639h0.787c1.327 0 2.359 1.081 2.359 2.36v2.753h1.524c0.59 0 1.081-0.492 1.081-1.081v-8.946c0-0.59-0.492-1.081-1.081-1.081h-27.232c-0.59 0-1.081 0.492-1.081 1.081v8.946c0 0.59 0.492 1.081 1.081 1.081h1.573v-2.753c0-1.327 1.081-2.36 2.359-2.36h0.786c0.344 0 0.639 0.295 0.639 0.639s-0.295 0.639-0.639 0.639h-0.786c-0.59 0-1.081 0.492-1.081 1.081v3.392c0 0.344-0.295 0.639-0.639 0.639h-2.212c-1.278 0-2.359-1.081-2.359-2.36v-8.946c0-1.278 1.081-2.359 2.359-2.359h27.281c1.327 0 2.359 1.081 2.359 2.359v8.946c0 1.278-1.081 2.36-2.359 2.36z"></path>
<path d="M8.258 10.897h-7.619c-0.344 0-0.639-0.295-0.639-0.639s0.295-0.639 0.639-0.639h7.619c0.344 0 0.639 0.295 0.639 0.639s-0.295 0.639-0.639 0.639z"></path>
<path d="M31.361 10.897h-7.619c-0.344 0-0.639-0.295-0.639-0.639s0.295-0.639 0.639-0.639h7.619c0.344 0 0.639 0.295 0.639 0.639s-0.295 0.639-0.639 0.639z"></path>
<path d="M14.592 17.392c0-0.624 0.346-1.248 0.899-1.525l0.276-0.139 0.069-0.069-0.069-0.069-0.138-0.277c-0.691-1.109-1.935-1.872-3.318-1.872-1.866 0-3.456 1.317-3.871 3.12-0.069 0.277 0 0.624 0.207 0.901 0.207 0.208 0.484 0.347 0.76 0.347h5.184v-0.416zM15.283 15.52c-0.691 0.347-1.106 1.109-1.106 1.872h-4.769c-0.138 0-0.346-0.069-0.415-0.208s-0.138-0.277-0.138-0.485c0.346-1.595 1.797-2.773 3.456-2.773 1.175 0 2.281 0.624 2.972 1.595zM12.311 21.413c0 1.872 1.313 3.467 3.11 3.883 0.069 0.069 0.138 0.069 0.207 0.069 0.207 0 0.484-0.069 0.622-0.208 0.207-0.208 0.346-0.485 0.346-0.763v-5.2h-0.346c-0.622 0-1.244-0.347-1.521-0.901l-0.138-0.277v-0.208l-0.069 0.069-0.276 0.139c-1.175 0.763-1.935 2.011-1.935 3.397zM12.795 21.483c0-1.179 0.622-2.288 1.59-2.981 0.346 0.693 1.037 1.109 1.866 1.109v4.784c0 0.139-0.069 0.208-0.207 0.347-0.138 0.069-0.276 0.139-0.484 0.139-1.59-0.347-2.765-1.803-2.765-3.397zM23.923 17.461c-0.207-0.208-0.484-0.347-0.76-0.347h-5.184v0.347c0 0.624-0.346 1.248-0.899 1.525l-0.415 0.208 0.069 0.069 0.138 0.277c0.76 1.179 2.004 1.872 3.387 1.872 1.866 0 3.456-1.317 3.871-3.12 0.069-0.277 0-0.624-0.207-0.832zM23.716 18.224c-0.346 1.595-1.797 2.773-3.387 2.773-1.175 0-2.281-0.624-2.972-1.595 0.691-0.347 1.106-1.109 1.106-1.872h4.7c0.138 0 0.346 0.069 0.415 0.208 0.138 0.139 0.138 0.277 0.138 0.485zM17.149 9.557c-0.276-0.069-0.622 0-0.829 0.208s-0.346 0.485-0.346 0.763v5.131h0.415c0.622 0 1.244 0.347 1.521 0.901l0.138 0.277 0.069 0.069 0.069-0.069 0.276-0.139c1.106-0.624 1.797-1.872 1.797-3.259 0-1.872-1.313-3.467-3.11-3.883zM18.186 16.421c-0.346-0.693-1.106-1.109-1.866-1.109v-4.784c0-0.139 0.069-0.347 0.207-0.416 0.207-0.069 0.346-0.139 0.553-0.139 1.59 0.347 2.765 1.803 2.765 3.467-0.069 1.179-0.622 2.288-1.659 2.981zM16.32 15.936c-0.829 0-1.521 0.693-1.521 1.525s0.691 1.525 1.521 1.525c0.829 0 1.521-0.693 1.521-1.525s-0.691-1.525-1.521-1.525zM16.32 18.501c-0.553 0-1.037-0.485-1.037-1.040s0.484-1.040 1.037-1.040 1.037 0.485 1.037 1.040c0 0.555-0.484 1.040-1.037 1.040z"></path>
<path d="M15.629 25.435c-0.069 0-0.138 0-0.276-0.069-1.797-0.416-3.18-2.080-3.18-3.952 0-1.387 0.691-2.704 1.935-3.467h-4.7c-0.346 0-0.622-0.139-0.829-0.416s-0.276-0.624-0.276-0.971c0.415-1.872 2.074-3.189 4.009-3.189 1.382 0 2.696 0.693 3.456 1.941v0.069-4.853c0-0.347 0.138-0.624 0.415-0.832s0.622-0.277 0.968-0.208c1.866 0.416 3.18 2.080 3.18 3.952 0 1.387-0.691 2.704-1.935 3.467h4.7c0.346 0 0.622 0.139 0.829 0.416s0.276 0.624 0.207 0.971c-0.415 1.872-2.074 3.189-3.94 3.189-1.382 0-2.696-0.693-3.456-1.941v-0.069 4.853c0 0.347-0.138 0.624-0.415 0.832-0.138 0.208-0.415 0.277-0.691 0.277zM14.523 17.947l-0.276 0.139c-1.175 0.693-1.866 1.941-1.866 3.328 0 1.803 1.244 3.397 3.041 3.813 0.069 0.069 0.138 0.069 0.207 0.069 0.207 0 0.415-0.069 0.622-0.208s0.346-0.416 0.346-0.693v-5.131h-0.276c-0.691 0-1.313-0.347-1.59-0.971v-0.069l-0.207-0.277zM16.804 19.195l0.138 0.277c0.691 1.179 1.935 1.872 3.318 1.872 1.797 0 3.387-1.248 3.802-3.051 0.069-0.277 0-0.555-0.138-0.763-0.207-0.208-0.415-0.347-0.691-0.347h-5.115v0.277c0 0.693-0.346 1.317-0.968 1.664l-0.346 0.069zM16.527 19.056h0.207l0.276-0.139c0.069 0 0.138-0.069 0.138-0.069-0.138 0.069-0.346 0.139-0.622 0.208zM16.32 16.005c-0.76 0-1.382 0.624-1.382 1.387s0.622 1.387 1.382 1.387c0.76 0 1.382-0.624 1.382-1.387s-0.622-1.387-1.382-1.387zM14.868 18.155c0 0.069 0.069 0.139 0.069 0.139-0.138-0.208-0.207-0.416-0.276-0.693v0.208l0.207 0.347zM12.311 13.579c-1.797 0-3.387 1.248-3.802 3.051-0.069 0.208-0.069 0.485 0.207 0.763 0.138 0.208 0.415 0.347 0.691 0.347h5.046v-0.277c0-0.693 0.346-1.317 0.968-1.664l0.276-0.139-0.138-0.277c-0.691-1.109-1.866-1.803-3.249-1.803zM17.633 16.56c0.138 0.208 0.207 0.416 0.207 0.624v-0.208l-0.138-0.277c0-0.069 0-0.069-0.069-0.139zM17.91 16.629l0.138 0.277 0.276-0.139c1.175-0.763 1.797-1.941 1.797-3.328 0-1.803-1.244-3.397-3.041-3.813-0.207-0.069-0.484-0.069-0.76 0.208-0.207 0.139-0.346 0.416-0.346 0.693v5.061h0.276c0.76 0.069 1.382 0.416 1.659 1.040zM15.905 15.867l-0.276 0.139c-0.069 0-0.138 0.069-0.207 0.139 0.207-0.139 0.415-0.208 0.691-0.277h-0.207zM15.629 25.019c-0.069 0-0.069 0-0.138 0-1.59-0.416-2.834-1.872-2.834-3.536 0-1.248 0.622-2.357 1.659-3.051l0.069-0.069 0.069 0.069c0.346 0.624 1.037 1.040 1.728 1.040h0.069v4.992c0 0.139-0.138 0.277-0.207 0.347-0.069 0.139-0.207 0.208-0.415 0.208zM14.316 18.64c-0.899 0.624-1.452 1.664-1.452 2.773 0 1.595 1.106 2.981 2.696 3.328 0.138 0 0.276 0 0.415-0.069 0.069-0.069 0.138-0.139 0.138-0.208v-4.784c-0.76 0-1.382-0.416-1.797-1.040zM20.26 21.067c-1.244 0-2.35-0.624-3.041-1.664l-0.069-0.069 0.069-0.069c0.622-0.347 1.037-1.040 1.037-1.733v-0.069h4.838c0.207 0 0.415 0.069 0.484 0.277 0.138 0.139 0.138 0.347 0.138 0.555-0.276 1.595-1.728 2.773-3.456 2.773zM17.495 19.403c0.622 0.901 1.659 1.456 2.765 1.456 1.59 0 2.972-1.109 3.318-2.704 0-0.139 0-0.277-0.069-0.347-0.069-0.139-0.207-0.139-0.346-0.139h-4.631c0 0.693-0.415 1.317-1.037 1.733zM16.32 18.64c-0.622 0-1.175-0.555-1.175-1.179s0.553-1.179 1.175-1.179c0.622 0 1.175 0.555 1.175 1.179-0.069 0.624-0.553 1.179-1.175 1.179zM16.32 16.491c-0.553 0-0.968 0.416-0.968 0.971s0.415 0.971 0.968 0.971 0.968-0.416 0.968-0.971c-0.069-0.555-0.484-0.971-0.968-0.971zM14.246 17.461h-4.838c-0.207 0-0.415-0.069-0.484-0.277-0.138-0.139-0.138-0.347-0.138-0.555 0.346-1.664 1.866-2.843 3.525-2.843 1.244 0 2.35 0.624 3.041 1.664l0.069 0.069-0.138 0.069c-0.622 0.347-1.037 1.040-1.037 1.733v0.139zM12.311 13.995c-1.59 0-2.972 1.109-3.318 2.704 0 0.139 0 0.277 0.069 0.416 0.069 0.069 0.207 0.139 0.346 0.139h4.631c0.069-0.763 0.415-1.387 1.037-1.803-0.622-0.901-1.659-1.456-2.765-1.456zM18.186 16.56l-0.069-0.069c-0.346-0.624-1.037-1.040-1.728-1.040h-0.069v-4.853c0-0.208 0.069-0.416 0.276-0.485 0.138-0.139 0.346-0.208 0.553-0.139 1.59 0.277 2.765 1.803 2.765 3.467 0 1.248-0.622 2.357-1.659 3.051l-0.069 0.069zM16.458 15.173c0.76 0.069 1.382 0.416 1.797 1.040 0.899-0.624 1.452-1.664 1.452-2.843 0-1.595-1.106-2.981-2.696-3.328-0.138 0-0.276 0-0.415 0.069-0.069 0.069-0.138 0.208-0.138 0.347v4.715z"></path>
</svg>
