<!-- Generated by IcoMoon.io -->
<svg version="1.1" xmlns="http://www.w3.org/2000/svg" width="32" height="32" viewBox="0 0 32 32">
<path d="M29.641 16.865h-2.212c-0.344 0-0.639-0.295-0.639-0.639v-3.392c0-0.59-0.492-1.081-1.081-1.081h-0.787c-0.344 0-0.639-0.295-0.639-0.639s0.295-0.639 0.639-0.639h0.787c1.327 0 2.359 1.081 2.359 2.36v2.753h1.524c0.59 0 1.081-0.492 1.081-1.081v-8.946c0-0.59-0.492-1.081-1.081-1.081h-27.232c-0.59 0-1.081 0.492-1.081 1.081v8.946c0 0.59 0.492 1.081 1.081 1.081h1.573v-2.753c0-1.327 1.081-2.36 2.359-2.36h0.786c0.344 0 0.639 0.295 0.639 0.639s-0.295 0.639-0.639 0.639h-0.786c-0.59 0-1.081 0.492-1.081 1.081v3.392c0 0.344-0.295 0.639-0.639 0.639h-2.212c-1.278 0-2.359-1.081-2.359-2.36v-8.946c0-1.278 1.081-2.359 2.359-2.359h27.281c1.327 0 2.359 1.081 2.359 2.359v8.946c0 1.278-1.081 2.36-2.359 2.36z"></path>
<path d="M17.647 14.702c-0.147 0-0.344-0.049-0.442-0.197-0.246-0.246-0.246-0.639 0-0.934l3.49-3.49c0.246-0.246 0.639-0.246 0.934 0 0.246 0.246 0.246 0.639 0 0.934l-3.539 3.49c-0.147 0.098-0.295 0.197-0.442 0.197z"></path>
<path d="M22.906 11.507c-0.049 0-0.049 0-0.098 0l-1.819-0.295c-0.295-0.049-0.492-0.246-0.541-0.541l-0.295-1.819c-0.049-0.344 0.197-0.688 0.541-0.737s0.688 0.197 0.737 0.541l0.246 1.327 1.327 0.246c0.344 0.049 0.59 0.393 0.541 0.737s-0.344 0.541-0.639 0.541z"></path>
<path d="M23.201 16.324h-4.866c-0.344 0-0.639-0.295-0.639-0.639s0.295-0.639 0.639-0.639h4.866c0.344 0 0.639 0.295 0.639 0.639 0.049 0.344-0.246 0.639-0.639 0.639z"></path>
<path d="M24.283 17.799c-0.197 0-0.393-0.098-0.541-0.295l-1.081-1.475c-0.148-0.246-0.148-0.541 0-0.737l1.081-1.475c0.197-0.295 0.59-0.344 0.885-0.147s0.344 0.59 0.148 0.885l-0.787 1.131 0.787 1.131c0.197 0.295 0.147 0.688-0.148 0.885-0.098 0.049-0.197 0.098-0.344 0.098z"></path>
<path d="M13.665 16.324h-4.866c-0.344 0-0.639-0.295-0.639-0.639s0.295-0.639 0.639-0.639h4.866c0.344 0 0.639 0.295 0.639 0.639s-0.295 0.639-0.639 0.639z"></path>
<path d="M7.717 17.799c-0.147 0-0.246-0.049-0.393-0.098-0.295-0.197-0.344-0.59-0.147-0.885l0.787-1.131-0.787-1.131c-0.197-0.295-0.147-0.688 0.147-0.885s0.688-0.147 0.885 0.147l1.081 1.475c0.147 0.246 0.147 0.541 0 0.737l-1.081 1.475c-0.098 0.197-0.295 0.295-0.492 0.295z"></path>
<path d="M14.353 14.653c-0.147 0-0.344-0.049-0.442-0.197l-3.441-3.441c-0.246-0.246-0.246-0.639 0-0.934 0.246-0.246 0.639-0.246 0.934 0l3.441 3.441c0.246 0.246 0.246 0.639 0 0.934-0.197 0.147-0.344 0.197-0.492 0.197z"></path>
<path d="M9.094 11.507c-0.295 0-0.59-0.246-0.639-0.541-0.049-0.344 0.197-0.688 0.541-0.737l1.327-0.246 0.246-1.327c0.049-0.344 0.393-0.59 0.737-0.541s0.59 0.393 0.541 0.737l-0.295 1.819c-0.049 0.295-0.246 0.492-0.541 0.541l-1.819 0.295c-0.049 0-0.049 0-0.098 0z"></path>
<path d="M16.025 13.965c-0.344 0-0.639-0.295-0.639-0.639v-4.866c0-0.344 0.295-0.639 0.639-0.639s0.639 0.295 0.639 0.639v4.866c0 0.344-0.295 0.639-0.639 0.639z"></path>
<path d="M16.025 9.099c-0.147 0-0.246-0.049-0.393-0.098l-1.475-1.081c-0.295-0.197-0.344-0.59-0.147-0.885s0.59-0.344 0.885-0.147l1.131 0.786 1.131-0.786c0.295-0.197 0.688-0.147 0.885 0.147s0.147 0.688-0.147 0.885l-1.475 1.081c-0.148 0.049-0.295 0.098-0.393 0.098z"></path>
<path d="M8.258 8.017h-7.619c-0.344 0-0.639-0.295-0.639-0.639s0.295-0.639 0.639-0.639h7.619c0.344 0 0.639 0.295 0.639 0.639s-0.295 0.639-0.639 0.639z"></path>
<path d="M31.361 8.017h-7.619c-0.344 0-0.639-0.295-0.639-0.639s0.295-0.639 0.639-0.639h7.619c0.344 0 0.639 0.295 0.639 0.639s-0.295 0.639-0.639 0.639z"></path>
<path d="M15.695 18.574c-0.128 0.128-0.448 0.641-0.769 1.217-0.192 0.256-0.32 0.512-0.448 0.833-0.128 0.256-0.192 0.512-0.192 0.769 0 0.961 0.769 1.73 1.73 1.73s1.73-0.769 1.73-1.73c0-0.256-0.064-0.512-0.192-0.769s-0.256-0.576-0.384-0.833c-0.32-0.576-0.641-1.025-0.769-1.217-0.064-0.128-0.256-0.192-0.384-0.192s-0.256 0.064-0.32 0.192zM15.246 20.112c0.256-0.448 0.576-0.961 0.833-1.281 0.256 0.32 0.576 0.833 0.833 1.281 0.128 0.256 0.256 0.448 0.32 0.705s0.064 0.448 0.064 0.577c0 0.705-0.577 1.217-1.281 1.217s-1.281-0.577-1.281-1.217c0-0.128 0.064-0.32 0.128-0.577 0.128-0.192 0.256-0.448 0.384-0.705zM16.656 21.137c-0.128 0-0.256 0.128-0.256 0.256 0 0.192-0.192 0.384-0.384 0.384-0.128 0-0.256 0.128-0.256 0.256s0.128 0.256 0.256 0.256c0.448 0 0.897-0.384 0.897-0.833 0-0.192-0.064-0.32-0.256-0.32z"></path>
<path d="M16.079 23.251c-1.025 0-1.858-0.833-1.858-1.858 0-0.192 0.064-0.512 0.192-0.833 0.128-0.256 0.256-0.577 0.448-0.833 0.384-0.641 0.705-1.153 0.769-1.217 0.128-0.128 0.256-0.256 0.448-0.256s0.384 0.064 0.448 0.256c0.064 0.064 0.448 0.577 0.769 1.217 0.192 0.32 0.32 0.577 0.448 0.833 0.128 0.32 0.192 0.641 0.192 0.833 0 1.025-0.833 1.858-1.858 1.858zM15.759 18.638c-0.064 0.128-0.448 0.577-0.769 1.217-0.192 0.32-0.32 0.577-0.384 0.833-0.128 0.256-0.192 0.512-0.192 0.705 0 0.897 0.769 1.666 1.666 1.666s1.666-0.769 1.666-1.666c0-0.192-0.064-0.448-0.192-0.769-0.128-0.256-0.256-0.512-0.384-0.833-0.32-0.576-0.705-1.089-0.769-1.153-0.192-0.192-0.512-0.192-0.641 0zM16.079 22.738c-0.769 0-1.345-0.576-1.345-1.345 0-0.128 0.064-0.32 0.128-0.577 0.064-0.192 0.192-0.448 0.32-0.705 0.192-0.384 0.512-0.897 0.833-1.281l0.064-0.128 0.064 0.128c0.128 0.192 0.512 0.705 0.833 1.281 0.128 0.256 0.256 0.512 0.32 0.705 0.064 0.256 0.128 0.448 0.128 0.577 0 0.705-0.641 1.345-1.345 1.345zM16.079 19.023c-0.256 0.384-0.512 0.769-0.705 1.153-0.128 0.256-0.256 0.512-0.32 0.705s-0.128 0.384-0.128 0.512c0 0.641 0.512 1.153 1.153 1.153s1.153-0.512 1.153-1.153c0-0.128-0.064-0.32-0.128-0.512s-0.192-0.448-0.32-0.705c-0.256-0.448-0.576-0.897-0.705-1.153zM16.079 22.354c-0.192 0-0.32-0.128-0.32-0.32s0.128-0.32 0.32-0.32c0.128 0 0.256-0.128 0.256-0.256 0-0.192 0.128-0.32 0.32-0.32s0.32 0.128 0.32 0.32c0.064 0.448-0.384 0.897-0.897 0.897zM16.656 21.265c-0.064 0-0.128 0.064-0.128 0.128 0 0.256-0.192 0.448-0.448 0.448-0.064 0-0.128 0.064-0.128 0.128s0.064 0.128 0.128 0.128c0.448 0 0.769-0.32 0.769-0.769 0 0-0.064-0.064-0.192-0.064z"></path>
<path d="M13.004 23.699c-0.128 0.128-0.448 0.641-0.769 1.217-0.128 0.256-0.32 0.577-0.384 0.833-0.128 0.256-0.192 0.576-0.192 0.769 0 0.961 0.769 1.73 1.73 1.73s1.73-0.769 1.73-1.73c0-0.256-0.064-0.512-0.192-0.769s-0.256-0.577-0.384-0.833-0.576-1.025-0.705-1.217c-0.128-0.128-0.256-0.192-0.384-0.192-0.192 0-0.32 0.064-0.448 0.192zM12.62 25.301c0.256-0.448 0.576-0.961 0.833-1.281 0.256 0.32 0.577 0.833 0.833 1.281 0.128 0.256 0.256 0.448 0.32 0.705 0.064 0.192 0.128 0.384 0.128 0.577 0 0.705-0.576 1.217-1.281 1.217s-1.281-0.577-1.281-1.217c0-0.128 0.064-0.32 0.128-0.577s0.192-0.448 0.32-0.705zM14.029 26.326c-0.128 0-0.256 0.128-0.256 0.256 0 0.192-0.128 0.32-0.32 0.32-0.128 0-0.256 0.128-0.256 0.256s0.128 0.256 0.256 0.256c0.448 0 0.897-0.384 0.897-0.833-0.064-0.192-0.128-0.256-0.32-0.256z"></path>
<path d="M13.453 28.376c-1.025 0-1.858-0.833-1.858-1.858 0-0.192 0.064-0.512 0.192-0.833 0.128-0.256 0.256-0.577 0.448-0.833 0.32-0.641 0.705-1.153 0.769-1.217v0.064l-0.064-0.064c0.128-0.128 0.32-0.192 0.512-0.192s0.384 0.064 0.448 0.256c0.064 0 0.384 0.512 0.769 1.153 0.192 0.32 0.32 0.577 0.448 0.833 0.128 0.32 0.192 0.576 0.192 0.833-0.064 1.025-0.833 1.858-1.858 1.858zM13.453 23.635c-0.128 0-0.256 0.064-0.32 0.128 0 0.064-0.384 0.577-0.769 1.153-0.192 0.32-0.32 0.577-0.384 0.833-0.128 0.32-0.192 0.576-0.192 0.769 0 0.961 0.705 1.666 1.666 1.666 0.897 0 1.666-0.769 1.666-1.666 0-0.192-0.064-0.448-0.192-0.769-0.128-0.256-0.256-0.512-0.384-0.833-0.32-0.641-0.705-1.153-0.769-1.153-0.064-0.064-0.192-0.128-0.32-0.128zM13.453 27.863c-0.769 0-1.345-0.577-1.345-1.345 0-0.128 0.064-0.32 0.128-0.577 0.064-0.192 0.192-0.448 0.32-0.705 0.192-0.384 0.512-0.897 0.833-1.281l0.064-0.128 0.064 0.128c0.128 0.192 0.512 0.705 0.833 1.281 0.128 0.256 0.256 0.512 0.32 0.705 0.064 0.256 0.128 0.448 0.128 0.577 0 0.769-0.641 1.345-1.345 1.345zM12.684 25.301c-0.128 0.256-0.256 0.512-0.32 0.705s-0.128 0.384-0.128 0.512c0 0.641 0.512 1.153 1.153 1.153s1.153-0.512 1.153-1.153c0-0.128-0.064-0.32-0.128-0.512s-0.192-0.448-0.32-0.705c-0.192-0.448-0.512-0.897-0.641-1.153-0.256 0.384-0.512 0.833-0.769 1.153zM13.453 27.479c-0.192 0-0.32-0.128-0.32-0.32s0.128-0.32 0.32-0.32c0.128 0 0.256-0.128 0.256-0.256 0-0.192 0.128-0.32 0.32-0.32s0.32 0.128 0.32 0.32c0.064 0.512-0.384 0.897-0.897 0.897zM14.029 26.39c-0.064 0-0.128 0.064-0.128 0.128 0 0.256-0.192 0.448-0.448 0.448-0.064 0-0.128 0.064-0.128 0.128s0.064 0.128 0.128 0.128c0.448 0 0.769-0.32 0.769-0.769 0 0-0.064-0.064-0.192-0.064z"></path>
<path d="M18.77 23.699c-0.128 0.128-0.448 0.641-0.769 1.217-0.128 0.256-0.32 0.577-0.384 0.833-0.128 0.256-0.192 0.576-0.192 0.769 0 0.961 0.769 1.73 1.73 1.73s1.73-0.769 1.73-1.73c0-0.256-0.064-0.512-0.192-0.769s-0.256-0.577-0.384-0.833c-0.32-0.576-0.641-1.025-0.769-1.217-0.064-0.128-0.256-0.192-0.384-0.192s-0.32 0.064-0.384 0.192zM18.321 25.301c0.256-0.448 0.576-0.961 0.833-1.281 0.256 0.32 0.576 0.833 0.833 1.281 0.128 0.256 0.256 0.448 0.32 0.705 0.064 0.192 0.128 0.384 0.128 0.577 0 0.705-0.577 1.217-1.281 1.217s-1.281-0.577-1.281-1.217c0-0.128 0.064-0.32 0.128-0.577s0.192-0.448 0.32-0.705zM19.795 26.326c-0.128 0-0.256 0.128-0.256 0.256 0 0.192-0.192 0.384-0.384 0.384-0.128 0-0.256 0.128-0.256 0.256s0.128 0.256 0.256 0.256c0.448 0 0.897-0.384 0.897-0.833-0.064-0.256-0.128-0.32-0.256-0.32z"></path>
<path d="M19.154 28.376c-1.025 0-1.858-0.833-1.858-1.858 0-0.192 0.064-0.512 0.192-0.833 0.128-0.256 0.256-0.577 0.448-0.833 0.32-0.641 0.705-1.153 0.769-1.217 0.128-0.128 0.256-0.256 0.448-0.256s0.384 0.064 0.448 0.256c0.128 0.192 0.448 0.705 0.769 1.217 0.192 0.32 0.32 0.577 0.448 0.833 0.128 0.32 0.192 0.576 0.192 0.833 0 1.025-0.833 1.858-1.858 1.858zM19.154 23.635c-0.128 0-0.256 0.064-0.32 0.128 0 0.064-0.384 0.577-0.769 1.153-0.192 0.32-0.32 0.577-0.384 0.833-0.128 0.32-0.192 0.576-0.192 0.769 0 0.897 0.769 1.666 1.666 1.666s1.666-0.769 1.666-1.666c0-0.192-0.064-0.448-0.192-0.769-0.128-0.256-0.256-0.512-0.384-0.833-0.256-0.512-0.641-0.961-0.769-1.153-0.064-0.064-0.192-0.128-0.32-0.128zM19.154 27.863c-0.769 0-1.345-0.577-1.345-1.345 0-0.128 0.064-0.32 0.128-0.577 0.064-0.192 0.192-0.448 0.32-0.705 0.192-0.384 0.512-0.897 0.833-1.281l0.064-0.128 0.064 0.128c0.128 0.192 0.512 0.705 0.833 1.281 0.128 0.256 0.256 0.512 0.32 0.705 0.064 0.256 0.128 0.448 0.128 0.577 0 0.769-0.641 1.345-1.345 1.345zM18.449 25.301c-0.128 0.256-0.256 0.512-0.32 0.705s-0.128 0.384-0.128 0.512c0 0.641 0.512 1.153 1.153 1.153s1.153-0.512 1.153-1.153c0-0.128-0.064-0.32-0.128-0.512s-0.192-0.448-0.32-0.705-0.576-0.897-0.705-1.153c-0.256 0.384-0.512 0.833-0.705 1.153zM19.154 27.479c-0.192 0-0.32-0.128-0.32-0.32s0.128-0.32 0.32-0.32c0.128 0 0.256-0.128 0.256-0.256 0-0.192 0.128-0.32 0.32-0.32s0.32 0.128 0.32 0.32c0.064 0.512-0.384 0.897-0.897 0.897zM19.795 26.39c-0.064 0-0.128 0.064-0.128 0.128 0 0.256-0.192 0.448-0.448 0.448-0.064 0-0.128 0.064-0.128 0.128s0.064 0.128 0.128 0.128c0.448 0 0.769-0.32 0.769-0.769-0.064 0-0.128-0.064-0.192-0.064z"></path>
<path d="M21.268 18.574c-0.128 0.128-0.448 0.641-0.769 1.217-0.128 0.256-0.32 0.577-0.384 0.833-0.128 0.256-0.192 0.577-0.192 0.769 0 0.961 0.769 1.73 1.73 1.73s1.73-0.769 1.73-1.73c0-0.256-0.064-0.512-0.192-0.769s-0.256-0.576-0.384-0.833c-0.32-0.576-0.641-1.025-0.769-1.217-0.064-0.128-0.256-0.192-0.384-0.192s-0.32 0.064-0.384 0.192zM20.884 20.112c0.256-0.448 0.577-0.961 0.833-1.281 0.256 0.32 0.577 0.833 0.833 1.281 0.128 0.256 0.256 0.448 0.32 0.705 0.064 0.192 0.128 0.384 0.128 0.577 0 0.705-0.576 1.217-1.281 1.217s-1.281-0.577-1.281-1.217c0-0.128 0.064-0.32 0.128-0.577 0.064-0.192 0.192-0.448 0.32-0.705zM22.293 21.137c-0.128 0-0.256 0.128-0.256 0.256 0 0.192-0.192 0.384-0.384 0.384-0.128 0-0.256 0.128-0.256 0.256s0.128 0.256 0.256 0.256c0.448 0 0.897-0.384 0.897-0.833 0-0.192-0.128-0.32-0.256-0.32z"></path>
<path d="M21.652 23.251c-1.025 0-1.858-0.833-1.858-1.858 0-0.192 0.064-0.512 0.192-0.833 0.128-0.256 0.256-0.577 0.448-0.897 0.256-0.448 0.576-0.897 0.705-1.153 0.128-0.128 0.256-0.256 0.448-0.256s0.384 0.064 0.448 0.256c0.064 0.064 0.384 0.577 0.769 1.217 0.192 0.32 0.32 0.641 0.448 0.833 0.128 0.32 0.192 0.576 0.192 0.833 0.064 1.025-0.769 1.858-1.794 1.858zM21.332 18.638c-0.128 0.192-0.448 0.705-0.769 1.217-0.192 0.32-0.32 0.577-0.384 0.833-0.128 0.32-0.192 0.577-0.192 0.769 0 0.897 0.769 1.666 1.666 1.666s1.666-0.769 1.666-1.666c0-0.192-0.064-0.448-0.192-0.769-0.064-0.256-0.256-0.512-0.384-0.833-0.32-0.641-0.705-1.153-0.769-1.153-0.128-0.256-0.448-0.256-0.641-0.064zM21.652 22.738c-0.769 0-1.345-0.576-1.345-1.345 0-0.128 0.064-0.32 0.128-0.577 0.064-0.192 0.192-0.448 0.32-0.705 0.192-0.384 0.512-0.897 0.833-1.281l0.064-0.128 0.064 0.128c0.128 0.192 0.512 0.705 0.833 1.281 0.128 0.256 0.256 0.512 0.32 0.705 0.064 0.256 0.128 0.448 0.128 0.577 0 0.705-0.576 1.345-1.345 1.345zM20.948 20.176c-0.128 0.256-0.256 0.512-0.32 0.705s-0.128 0.384-0.128 0.512c0 0.641 0.512 1.153 1.153 1.153s1.153-0.512 1.153-1.153c0-0.128-0.064-0.32-0.128-0.512s-0.192-0.448-0.32-0.705-0.577-0.897-0.705-1.153c-0.256 0.384-0.512 0.769-0.705 1.153zM21.652 22.354c-0.192 0-0.32-0.128-0.32-0.32s0.128-0.32 0.32-0.32c0.128 0 0.256-0.128 0.256-0.256 0-0.192 0.128-0.32 0.32-0.32s0.32 0.128 0.32 0.32c0.064 0.448-0.384 0.897-0.897 0.897zM22.293 21.265c-0.064 0-0.128 0.064-0.128 0.128 0 0.256-0.192 0.448-0.448 0.448-0.064 0-0.128 0.064-0.128 0.128s0.064 0.128 0.128 0.128c0.448 0 0.769-0.32 0.769-0.769-0.064 0-0.128-0.064-0.192-0.064z"></path>
<path d="M10.186 18.574c-0.128 0.128-0.448 0.641-0.769 1.217-0.128 0.256-0.32 0.512-0.384 0.833-0.128 0.256-0.192 0.512-0.192 0.769 0 0.961 0.769 1.73 1.73 1.73s1.73-0.769 1.73-1.73c0-0.256-0.064-0.512-0.128-0.769-0.128-0.32-0.32-0.576-0.448-0.897-0.32-0.512-0.641-1.025-0.769-1.153-0.064-0.128-0.256-0.192-0.384-0.192s-0.32 0.064-0.384 0.192zM9.737 20.112c0.256-0.448 0.576-0.961 0.833-1.281 0.256 0.32 0.576 0.833 0.833 1.281 0.128 0.256 0.192 0.512 0.32 0.705 0.064 0.192 0.128 0.384 0.128 0.577 0 0.705-0.577 1.217-1.281 1.217s-1.281-0.577-1.281-1.217c0-0.128 0.064-0.32 0.128-0.577 0.128-0.192 0.192-0.448 0.32-0.705zM11.21 21.137c-0.128 0-0.256 0.128-0.256 0.256 0 0.192-0.192 0.384-0.384 0.384-0.128 0-0.256 0.128-0.256 0.256s0.128 0.256 0.256 0.256c0.448 0 0.897-0.384 0.897-0.833 0-0.192-0.128-0.32-0.256-0.32z"></path>
<path d="M10.57 23.251c-1.025 0-1.858-0.833-1.858-1.858 0-0.192 0.064-0.512 0.192-0.833 0.128-0.256 0.256-0.577 0.448-0.833 0.384-0.641 0.705-1.153 0.769-1.217 0.128-0.128 0.256-0.256 0.448-0.256s0.384 0.064 0.448 0.256c0.064 0.064 0.448 0.577 0.769 1.217 0.192 0.32 0.32 0.577 0.448 0.833 0.128 0.32 0.192 0.576 0.192 0.833 0 1.025-0.833 1.858-1.858 1.858zM10.57 18.446c-0.128 0-0.256 0.064-0.32 0.192 0 0.064-0.384 0.577-0.769 1.153-0.128 0.32-0.32 0.641-0.384 0.833-0.128 0.32-0.192 0.577-0.192 0.769 0 0.897 0.769 1.666 1.666 1.666s1.666-0.769 1.666-1.666c0-0.192-0.064-0.448-0.192-0.769-0.064-0.256-0.256-0.512-0.384-0.833-0.384-0.576-0.705-1.089-0.769-1.153-0.064-0.128-0.192-0.192-0.32-0.192zM10.57 22.738c-0.769 0-1.345-0.576-1.345-1.345 0-0.128 0.064-0.32 0.128-0.577 0.064-0.192 0.192-0.448 0.32-0.705 0.192-0.448 0.512-0.897 0.833-1.281l0.064-0.128 0.064 0.128c0.128 0.192 0.512 0.705 0.833 1.281 0.128 0.256 0.256 0.512 0.32 0.705 0.064 0.256 0.128 0.448 0.128 0.577 0 0.705-0.577 1.345-1.345 1.345zM9.865 20.176c-0.128 0.256-0.256 0.512-0.32 0.705s-0.128 0.384-0.128 0.512c0 0.641 0.512 1.153 1.153 1.153s1.153-0.512 1.153-1.153c0-0.128-0.064-0.32-0.128-0.512s-0.192-0.448-0.32-0.705c-0.256-0.448-0.512-0.897-0.705-1.153-0.256 0.384-0.512 0.769-0.705 1.153zM10.57 22.354c-0.192 0-0.32-0.128-0.32-0.32s0.128-0.32 0.32-0.32c0.128 0 0.256-0.128 0.256-0.256 0-0.192 0.128-0.32 0.32-0.32 0.256-0.064 0.384 0.064 0.384 0.256 0 0.512-0.448 0.961-0.961 0.961zM11.21 21.265c-0.064 0-0.128 0.064-0.128 0.128 0 0.256-0.192 0.448-0.448 0.448-0.064 0-0.128 0.064-0.128 0.128s0.064 0.128 0.128 0.128c0.448 0 0.769-0.32 0.769-0.769-0.064 0-0.128-0.064-0.192-0.064z"></path>
</svg>
