<!-- Generated by IcoMoon.io -->
<svg version="1.1" xmlns="http://www.w3.org/2000/svg" width="32" height="32" viewBox="0 0 32 32">
<path d="M29.641 22.579h-2.212c-0.344 0-0.639-0.294-0.639-0.637v-3.38c0-0.588-0.492-1.078-1.081-1.078h-0.787c-0.344 0-0.639-0.294-0.639-0.637s0.295-0.637 0.639-0.637h0.787c1.327 0 2.359 1.078 2.359 2.351v2.743h1.524c0.59 0 1.081-0.49 1.081-1.078v-8.916c0-0.588-0.492-1.078-1.081-1.078h-27.232c-0.59 0-1.081 0.49-1.081 1.078v8.916c0 0.588 0.492 1.078 1.081 1.078h1.573v-2.743c0-1.323 1.081-2.351 2.359-2.351h0.786c0.344 0 0.639 0.294 0.639 0.637s-0.295 0.637-0.639 0.637h-0.786c-0.59 0-1.081 0.49-1.081 1.078v3.38c0 0.343-0.295 0.637-0.639 0.637h-2.212c-1.278 0-2.359-1.078-2.359-2.351v-8.916c0-1.274 1.081-2.351 2.359-2.351h27.281c1.327 0 2.359 1.078 2.359 2.351v8.916c0 1.274-1.081 2.351-2.359 2.351z"></path>
<path d="M8.258 13.761h-7.619c-0.344 0-0.639-0.294-0.639-0.637s0.295-0.637 0.639-0.637h7.619c0.344 0 0.639 0.294 0.639 0.637s-0.295 0.637-0.639 0.637z"></path>
<path d="M31.361 13.761h-7.619c-0.344 0-0.639-0.294-0.639-0.637s0.295-0.637 0.639-0.637h7.619c0.344 0 0.639 0.294 0.639 0.637s-0.295 0.637-0.639 0.637z"></path>
<path d="M4.545 20.415h22.978v1.515h-22.978v-1.515z"></path>
<path d="M8.585 16.88c0-0.418 0.339-0.758 0.758-0.758h13.635c0.418 0 0.758 0.339 0.758 0.758s-0.339 0.758-0.758 0.758h-13.635c-0.418 0-0.758-0.339-0.758-0.758z"></path>
</svg>
